<?xml version="1.0" standalone="no"?>
<!DOCTYPE svg PUBLIC "-//W3C//DTD SVG 1.1//EN" "http://www.w3.org/Graphics/SVG/1.1/DTD/svg11.dtd" >
<svg>
<metadata>
Created by FontForge 20110222 at Mon Mar  7 13:19:14 2011
 By www-data
Copyright 1990-1993 FontBank, Inc.
</metadata>
<defs>
<font id="Valken" horiz-adv-x="636" >
  <font-face 
    font-family="Valken"
    font-weight="5"
    font-stretch="normal"
    units-per-em="1000"
    panose-1="0 0 0 0 0 0 0 0 0 0"
    ascent="800"
    descent="-200"
    x-height="541"
    cap-height="727"
    bbox="-85 -254 1064 978"
    underline-thickness="20"
    underline-position="-164"
    unicode-range="U+0020-203A"
  />
    <missing-glyph />
    <glyph glyph-name=".null" unicode="&#xd7;" horiz-adv-x="0" 
 />
    <glyph glyph-name="space" unicode=" " horiz-adv-x="290" 
 />
    <glyph glyph-name="exclam" unicode="!" horiz-adv-x="320" 
d="M159 224q52 0 87.5 -35.5t35.5 -86.5q0 -50 -35.5 -85.5t-86.5 -35.5q-50 0 -86 35t-36 86q0 50 35 86t86 36zM48 624q0 46 33.5 78.5t78.5 32.5q46 0 78 -33.5t32 -78.5v-267q0 -45 -32 -78t-78 -33q-47 0 -79.5 32.5t-32.5 79.5v267z" />
    <glyph glyph-name="quotedbl" unicode="&#x22;" horiz-adv-x="426" 
d="M51 720h144l-22 -252h-144zM253 720h144l-22 -252h-144z" />
    <glyph glyph-name="dollar" unicode="$" horiz-adv-x="618" 
d="M296 262l-15 3l-11 2q-15 3 -25 6t-52 16l-58 21q-56 23 -87.5 70.5t-31.5 105.5q0 39 14.5 75.5t45.5 70.5t77.5 57.5t109.5 33.5l34 4v92q0 7 5.5 13.5t12.5 6.5t12.5 -5.5t5.5 -15.5v-90q52 0 106 -16.5t80.5 -37t35.5 -52.5q3 -9 4 -21.5t1 -13.5q0 -31 -16 -53
q-30 -43 -78 -43q-24 0 -60 11l-32 9l-6 3l-24 7l-3 1l-3 1l-5 1l-1 -53l22 -5q63 -18 94 -29t50 -21q53 -28 81.5 -74.5t28.5 -102.5q0 -39 -13 -74.5t-43 -70.5q-70 -81 -183 -98l-38 -3l-1 -90q0 -7 -4 -13t-14 -6q-6 0 -12 5t-6 14l1 88l-37 1q-63 0 -106 11.5t-73 30.5
q-67 40 -67 96q0 13 4 30.5t14 32.5q27 42 71 42h16q3 0 19 -4l44 -12l39 -10l32 -8l8 -2l36 -3zM251 525q-9 -8 -9 -15q0 -5 7 -12q3 -3 13 -8l6 -2l10 -3l18 -5l1 51l-11 1q-23 0 -35 -7zM350 203q12 6 18 16q3 6 3 12q0 10 -6 12l-10 4l-13 4l-5 1l-5 2l-1 -57l9 3z" />
    <glyph glyph-name="percent" unicode="%" horiz-adv-x="852" 
d="M150 724q34 14 70 14q35 0 69 -14q53 -22 83.5 -68t30.5 -101q0 -19 -3 -35.5t-11 -34.5q-15 -33 -41 -59q-56 -54 -129 -54q-78 0 -132 53t-54 129q0 54 32 101.5t85 68.5zM545 692q29 41 79 41q29 0 52 -16q19 -13 29.5 -33t10.5 -43q0 -29 -16 -51l-392 -563
q-10 -15 -26.5 -25.5t-35.5 -15.5q-12 -2 -18 -2q-32 0 -57.5 20.5t-31.5 54.5q-1 6 -1 17q0 31 17 54zM569 332q33 13 70 13q35 0 69 -14q51 -21 81 -67.5t30 -99.5q0 -74 -54.5 -127.5t-128.5 -53.5q-34 0 -68 14q-52 22 -83.5 67.5t-31.5 100.5q0 56 31 101t85 66z
M240 534q10 9 10 22q0 10 -8.5 18.5t-23.5 8.5q-13 0 -22.5 -8.5t-9.5 -20.5t9 -20t22 -8q9 0 13 2zM668 176q-8 18 -30 18q-4 0 -12 -2q-20 -8 -20 -28q0 -28 30 -28q7 0 16 3q18 7 18 26q0 3 -2 11z" />
    <glyph glyph-name="ampersand" unicode="&#x26;" horiz-adv-x="744" 
d="M134 436l-6 8q-30 45 -30 95q0 64 46.5 115.5t128.5 69.5q44 9 87 9q23 0 46 -3q88 -10 139.5 -49.5t65.5 -103.5q5 -27 5 -47q0 -50 -26 -90t-73 -64l-15 -7l27 -19l12 4l8 3l12 4l9 4q22 8 44 8q7 0 21 -2q40 -8 67 -34t32 -60q1 -5 1 -10v-10q0 -31 -12.5 -50.5
t-31.5 -22.5q10 -17 15 -28q15 -35 15 -67q0 -19 -4.5 -33.5t-18 -33t-30 -29.5t-38.5 -11q-58 0 -92 43l-19 24l-14 -8q-48 -28 -93 -40.5t-99 -12.5q-55 0 -109 16q-85 26 -133 89.5t-48 140.5q0 74 46 130q8 10 17 19.5t17 16.5t14.5 12.5t22.5 15.5zM405 522q3 6 3 13
q0 12 -8 21t-22 11q-13 3 -23 -5q-16 -12 -13 -32q3 -11 19 -23l6 -4l14 -8l18 18zM284 190q8 -6 22 -9.5t30 -3.5q6 1 9 1q7 1 20 6q2 0 6 3l-95 97l-6 -4q-20 -18 -20 -40q0 -29 34 -50z" />
    <glyph glyph-name="quotesingle" unicode="'" horiz-adv-x="224" 
d="M51 720h144l-22 -252h-144z" />
    <glyph glyph-name="parenleft" unicode="(" horiz-adv-x="319" 
d="M58 545q4 21 9 42q2 9 13 45l23 71q21 60 39.5 82t40.5 25.5t28 3.5q29 0 53 -19q13 -11 22 -23q15 -20 15 -45q0 -7 -2 -17.5t-5 -25.5l-21 -60q-22 -67 -30 -116q-16 -90 -16 -149t16 -149q9 -54 30 -116l16 -47l5 -14q8 -24 8 -40q0 -40 -38 -70q-25 -19 -56 -19
q-10 0 -15 1q-32 6 -50 27t-40 82l-23 72q-13 43 -22 87q-20 99 -20 186q0 86 20 186z" />
    <glyph glyph-name="parenright" unicode=")" horiz-adv-x="319" 
d="M25 33l1 3l19 58l13 39q12 43 18 77q16 81 16 149t-16 149q-7 35 -12.5 56.5t-18.5 59.5l-15 45l-5 15q-8 24 -8 41q0 41 38 70q25 19 54 19q5 0 27.5 -3.5t40 -24.5t39.5 -83l23 -71q14 -49 21 -87q21 -99 21 -191q0 -141 -56 -315l-10 -29q-21 -57 -39.5 -78.5
t-49.5 -26.5q-5 -1 -15 -1q-33 0 -56 19q-38 29 -38 64q0 8 1.5 18.5t6.5 27.5z" />
    <glyph glyph-name="asterisk" unicode="*" horiz-adv-x="407" 
d="M125 543l-54 3q-30 3 -41 31q-5 13 -5 25q0 25 17.5 46.5t43.5 25.5q30 5 48 -19l31 -41l-24 45q-5 12 -5 20q0 14 10 27q23 27 58 27q34 0 57 -27q10 -11 10 -28q0 -9 -5 -19l-24 -45l31 41q18 24 48 19q27 -4 44 -24.5t17 -47.5q0 -12 -5 -25q-11 -28 -41 -31l-54 -3
l51 -8q21 -4 35 -21.5t14 -39.5q0 -14 -8 -32q-18 -37 -51 -37q-37 0 -52 25l-26 45l20 -47q4 -9 4 -21q0 -21 -11 -35q-19 -28 -54 -28q-34 0 -55 28q-11 15 -11 36q0 12 4 20l20 47l-26 -45q-17 -28 -50 -25q-35 5 -53 37q-8 15 -8 33q0 23 13.5 39.5t35.5 20.5z" />
    <glyph glyph-name="comma" unicode="," horiz-adv-x="302" 
d="M66 164q14 30 40.5 47t58.5 17q24 0 44 -10q29 -14 46 -41t17 -58q0 -13 -2 -23t-8 -22l-94 -195q-19 -39 -61 -55q-17 -7 -37 -7q-32 0 -57.5 18t-36.5 49q-6 18 -6 37q0 24 9 45z" />
    <glyph glyph-name="hyphen" unicode="-" horiz-adv-x="506" 
d="M396 386q36 0 61 -26t25 -64q0 -37 -26 -63t-61 -26h-280q-37 0 -64 26t-27 63q0 36 26 64q28 26 65 26h281z" />
    <glyph glyph-name="period" unicode="." horiz-adv-x="305" 
d="M143 224q50 0 85.5 -35.5t35.5 -86.5t-35.5 -86t-85.5 -35q-51 0 -87 36t-36 86t35.5 85.5t87.5 35.5z" />
    <glyph glyph-name="slash" unicode="/" horiz-adv-x="451" 
d="M265 724q11 26 35 42t51 16q18 0 37 -8q56 -24 56 -86q0 -19 -7 -34l-251 -615q-10 -26 -33.5 -41t-51.5 -15q-19 0 -36 7q-27 10 -42.5 33.5t-15.5 52.5q0 18 7 33z" />
    <glyph glyph-name="zero" unicode="0" horiz-adv-x="677" 
d="M25 429q13 89 53 153t104 102q77 46 157 46q79 0 156 -46q63 -38 103 -102t53 -153q3 -16 4 -41t1 -28q0 -17 -1 -34.5t-4 -34.5q-13 -87 -53.5 -151t-102.5 -102q-76 -47 -156 -47q-41 0 -78.5 11t-78.5 36q-63 37 -103 101t-54 152q-4 33 -4.5 47t-0.5 22q0 31 5 69z
M328 184q4 -1 13 -1q53 0 83 70l11 34q8 36 8 76q0 72 -28 119t-62 52q-5 1 -15 1q-27 0 -46 -15.5t-37 -53.5q-21 -42 -21 -106l2 -36q9 -68 34 -104q22 -31 58 -36z" />
    <glyph glyph-name="one" unicode="1" horiz-adv-x="677" 
d="M356 720q50 0 79 -29t29 -80v-504q0 -48 -34 -81t-82 -33q-47 0 -81 34t-34 81v412h-33q-41 0 -71 29.5t-30 71.5q0 41 30 70t70 29h157z" />
    <glyph glyph-name="two" unicode="2" horiz-adv-x="676" 
d="M530 200q42 0 71 -29t29 -71q0 -41 -28.5 -70.5t-70.5 -29.5h-367q-46 0 -72 20q-37 30 -37 74q0 43 35 78l121 121l70 74l61 70l19 21l10 13l7 10q7 11 7 23q0 18 -26 27l-15 2q-21 0 -31.5 -5t-26.5 -22l-27 -34q-49 -59 -106 -59q-32 0 -61 21q-40 32 -40 85
q0 38 21.5 75.5t68.5 71.5q84 62 200 62q58 0 112 -17q78 -25 120.5 -78.5t42.5 -123.5q0 -71 -46 -139q-35 -53 -83 -104q-35 -38 -68 -66h110z" />
    <glyph glyph-name="three" unicode="3" horiz-adv-x="677" 
d="M532 390q44 -25 68.5 -66.5t24.5 -89.5q0 -46 -19.5 -87.5t-61.5 -78.5q-65 -59 -164 -74q-13 -2 -24.5 -3t-25.5 -1q-68 0 -137.5 29t-104.5 71t-35 88q1 7 1 11q4 38 33.5 63.5t67.5 25.5q25 0 49 -12q13 -7 39 -27l14 -11l9 -8l8 -6q22 -14 37 -19t32 -5l13 2
q19 4 29 15t10 27q0 9 -5 19q-11 20 -45 24l-10 1l-26 1l-20 3q-31 8 -51.5 33t-20.5 59q0 58 45 87q24 15 65 15q25 0 34 8.5t9 18.5q0 6 -4.5 12.5t-18.5 10.5l-9 2h-6q-15 2 -34 -7.5t-51 -36.5q-3 -3 -20 -10q-4 -1 -12.5 -3.5t-18.5 -4t-15 -1.5q-40 0 -69 29t-29 72
q0 7 3 30t36 57q28 28 88 51t125 23h22t25 -2q57 -7 94 -24.5t63 -48.5q44 -55 44 -114q0 -48 -29 -97q-14 -24 -36 -43z" />
    <glyph glyph-name="four" unicode="4" horiz-adv-x="676" 
d="M271 642q33 47 63.5 67t66.5 20q84 0 121 -44t37 -139v-214h10q40 0 69 -29t29 -70t-29 -70t-71 -29h-10v-25q0 -48 -34 -82t-82 -34q-47 0 -81 33t-34 82v28h-202l-27 2q-41 6 -65.5 33.5t-24.5 64.5q0 15 2 24q1 4 6 15l14 25zM327 491l-102 -158h102v158z" />
    <glyph glyph-name="five" unicode="5" horiz-adv-x="678" 
d="M148 638q4 23 21.5 44t38.5 29.5t40 8.5h275q41 0 69.5 -29.5t28.5 -73.5q0 -43 -29 -72t-69 -29h-192l-13 -61l9 2l13 2q28 5 60 5q91 0 150.5 -61.5t59.5 -149.5q0 -18 -1 -27t-4.5 -24t-6 -22t-13.5 -34q-35 -76 -103 -117t-168 -41q-30 0 -72.5 5.5t-76.5 17.5
t-51 21t-33 22q-36 32 -36 79q0 45 33 72q19 14 36 19.5t36 5.5q22 0 60 -13l12 -4l23 -8l13 -4q35 -9 55 -9q15 0 26 4q40 13 40 48q0 15 -10 30.5t-41 21.5q-10 2 -16 2q-17 0 -55 -15l-21 -8l-4 -2q-21 -9 -42 -9q-31 0 -54 19q-36 26 -36 73q0 11 1 16z" />
    <glyph glyph-name="six" unicode="6" horiz-adv-x="676" 
d="M410 469l47 -7q75 -14 122 -72t47 -137q0 -49 -21 -100q-32 -76 -99.5 -119t-160.5 -43q-25 0 -51 3q-115 14 -180 81t-65 170q0 89 50 190l33 61q44 74 79 112q65 70 96 94q35 27 66 27q10 0 21.5 -3t24.5 -8q28 -12 45 -35q26 -34 26 -64q0 -37 -46 -88l-4 -4l-30 -31
l-6 -7l-16 -18zM374 208q21 15 21 38q0 22 -18 37t-43 15q-12 0 -21 -4q-38 -15 -38 -54q0 -12 10.5 -23.5t27.5 -18.5q14 -4 23 -4q19 0 38 14z" />
    <glyph glyph-name="seven" unicode="7" horiz-adv-x="676" 
d="M535 720q42 0 71 -23q38 -32 38 -76q0 -24 -12 -45l-295 -519q-37 -62 -107 -62q-28 0 -55 14t-42.5 40t-15.5 57q0 30 17 56l236 359h-235q-42 0 -72.5 29.5t-30.5 70.5t31 70t72 29h400z" />
    <glyph glyph-name="eight" unicode="8" horiz-adv-x="677" 
d="M128 399q-48 53 -48 121q0 70 50 130q27 32 66 51.5t82 23.5t67 4q70 0 119.5 -20.5t81.5 -58.5q51 -62 51 -129q0 -68 -49 -122l-9 -9q44 -17 70.5 -60t26.5 -99q0 -37 -11.5 -71t-37.5 -67q-29 -38 -76 -61.5t-118 -33.5q-24 -4 -55 -4t-55 4q-71 10 -118.5 34
t-76.5 62q-23 31 -35.5 67.5t-12.5 70.5q0 55 26 98t71 60zM372 475q15 14 15 32q0 16 -14 29.5t-36 13.5q-10 0 -18 -4q-30 -11 -30 -46q0 -9 9.5 -19.5t20 -14t19.5 -3.5q19 0 34 12zM388 213q22 19 22 44q0 28 -24 46t-48 18q-13 0 -29 -5.5t-28.5 -21t-14.5 -33.5
q0 -19 12 -36t34 -26q11 -4 25 -4q28 0 51 18z" />
    <glyph glyph-name="nine" unicode="9" horiz-adv-x="676" 
d="M265 248q-102 13 -159 69t-57 143q0 20 1 30t6 31q20 95 93.5 150.5t181.5 55.5q24 0 50 -3q114 -14 180 -81t66 -170q0 -90 -50 -191l-34 -61q-22 -37 -42.5 -66.5t-36.5 -45.5q-62 -69 -97 -95t-65 -26q-10 0 -21.5 3t-24.5 8q-27 11 -45 34q-25 32 -25 64q0 39 46 89
l3 3l30 32l6 7l17 18zM382 434q18 15 18 37t-17.5 37.5t-42.5 15.5q-9 0 -23.5 -4.5t-25.5 -19t-11 -30.5q0 -21 18 -36t42 -15q12 0 23.5 4.5t18.5 10.5z" />
    <glyph glyph-name="colon" unicode=":" horiz-adv-x="324" 
d="M162 224q50 0 85.5 -35.5t35.5 -86.5t-35.5 -86t-85.5 -35q-51 0 -87 36t-36 86t35.5 85.5t87.5 35.5zM74 523q37 35 86 35q51 0 87 -37q16 -16 25 -39.5t9 -45.5q0 -51 -35.5 -86t-86.5 -35q-50 0 -85.5 34.5t-35.5 87.5q0 52 36 86z" />
    <glyph glyph-name="semicolon" unicode=";" horiz-adv-x="341" 
d="M178 558q52 0 87.5 -36.5t35.5 -87.5q0 -50 -37 -86t-85 -36q-51 0 -87.5 35.5t-36.5 87.5q0 51 36 87t87 36zM81 164q14 30 40.5 47t58.5 17q24 0 44 -10q29 -14 46 -41t17 -58q0 -13 -2 -23t-8 -22l-94 -195q-19 -39 -61 -55q-17 -7 -37 -7q-32 0 -57.5 18t-36.5 49
q-6 18 -6 37q0 24 9 45z" />
    <glyph glyph-name="question" unicode="?" horiz-adv-x="549" 
d="M266 226q51 0 87 -36t36 -86q0 -24 -9 -46t-28 -41q-35 -35 -86 -35t-86.5 35.5t-35.5 86.5t35.5 86.5t86.5 35.5zM267 244q-49 0 -79.5 28t-30.5 84l1 15q0 95 102 114l20 4l9 2q18 6 18 23q0 7 -7 18q-10 14 -51 14q-9 -1 -20.5 -4.5t-28.5 -11.5l-10 -6l-28 -18
l-27 -14q-9 -5 -19.5 -8t-25.5 -3q-17 0 -32 6q-51 21 -51 84q0 33 21 65q15 22 39.5 40.5t65.5 36.5q61 26 128 26q11 0 23 -1.5t24 -2.5q95 -15 146.5 -54.5t68.5 -106.5q3 -15 5 -27t2 -25q0 -59 -35 -103.5t-102 -66.5l-15 -4q-5 -35 -14 -52q-28 -52 -97 -52z" />
    <glyph glyph-name="A" unicode="A" horiz-adv-x="686" 
d="M169 600q24 60 69.5 93t104.5 33t104.5 -32.5t69.5 -93.5l172 -440q13 -36 13 -61q0 -34 -18 -60t-52 -40q-23 -10 -48 -10q-36 0 -65 21.5t-43 60.5l-11 33h-243l-12 -33q-14 -38 -43.5 -60t-65.5 -22q-24 0 -47 10q-70 30 -70 100q0 25 13 61zM343 495l-54 -192h108z
" />
    <glyph glyph-name="B" unicode="B" horiz-adv-x="645" 
d="M29 601q0 50 34.5 84.5t83.5 34.5h166l44 -3q98 -13 155.5 -72t57.5 -140v-14q-1 -6 -1 -9q-6 -58 -37 -99l2 -2l14 -9l14 -9l6 -5q64 -52 64 -140q0 -33 -10.5 -65.5t-30 -58t-37.5 -41.5q-33 -27 -70.5 -40t-89.5 -13h-249q-51 0 -83.5 34.5t-32.5 92.5v474zM341 469
q10 7 10 21q0 13 -11.5 22.5t-27.5 9.5h-51v-64h53q14 0 27 11zM401 231q0 15 -9 25t-23 10h-109v-67h109q12 0 22 9t10 23z" />
    <glyph glyph-name="C" unicode="C" horiz-adv-x="670" 
d="M105 588q93 113 244 134q42 6 79 6q106 0 169 -44q56 -39 56 -93q0 -34 -20 -59q-15 -19 -32.5 -28t-41.5 -9q-20 0 -38.5 3t-27.5 6q-21 8 -33 12.5t-24.5 6t-32.5 1.5q-57 0 -99 -33.5t-55 -95.5q-3 -17 -3 -32t3 -32q24 -127 142 -127q48 0 115 23l10 3q17 4 37 4
q48 0 76 -31q25 -28 25 -62q0 -30 -21 -62q-13 -19 -36 -35.5t-61 -30.5q-51 -20 -122 -20q-35 0 -74 6q-104 17 -181 80q-29 24 -57 58q-82 107 -82 227q0 56 22 115t63 109z" />
    <glyph glyph-name="D" unicode="D" horiz-adv-x="738" 
d="M145 720h158q168 0 270 -70t135 -204q10 -43 10 -90q0 -154 -107 -255t-273 -101h-194q-47 0 -81 34t-34 83v487q0 49 33.5 82.5t82.5 33.5zM484 396q-11 55 -59 89.5t-119 34.5h-46v-321h55q78 0 126 44t48 113q0 17 -5 40z" />
    <glyph glyph-name="E" unicode="E" horiz-adv-x="531" 
d="M29 604q0 50 33 83t83 33h275q39 0 68 -29t29 -71q0 -41 -29 -71t-70 -30h-158v-61h130q44 0 77 -31q30 -27 30 -67t-31 -69q-34 -29 -75 -29h-131v-62h150q45 0 77 -29.5t32 -71.5q0 -40 -31.5 -69.5t-74.5 -29.5h-269q-33 0 -62 20t-44 54q-9 21 -9 44v486z" />
    <glyph glyph-name="F" unicode="F" horiz-adv-x="504" 
d="M29 603q0 50 33.5 83.5t83.5 33.5h273q42 0 72 -30t30 -71t-31 -72q-32 -29 -72 -29h-157v-71h133q41 0 70 -30t29 -71q0 -42 -29 -70t-71 -28h-132v-145q0 -48 -34 -82t-82 -34t-82 34t-34 82v500z" />
    <glyph glyph-name="G" unicode="G" horiz-adv-x="801" 
d="M481 237q-42 0 -72 30t-30 72q0 41 29.5 70.5t71.5 29.5h194q107 0 107 -118q0 -33 -7 -69q-7 -46 -34 -93q-44 -79 -126 -123.5t-188 -44.5q-40 0 -90 8q-102 17 -176 74t-111 144q-29 65 -29 140q0 93 46.5 174.5t135.5 137.5q47 30 101 44.5t116 14.5q11 0 24 -1
t20 -1q50 -4 100.5 -20t91.5 -41q85 -54 85 -118q0 -39 -35 -69q-25 -22 -61 -22q-24 0 -54 12l-43 22l-21 11q-60 28 -115 28q-64 0 -107 -37.5t-54 -103.5q-3 -14 -3 -27q0 -15 3 -32q13 -65 56.5 -101.5t109.5 -36.5q25 0 53.5 6t44.5 15t27 25h-60z" />
    <glyph glyph-name="H" unicode="H" horiz-adv-x="749" 
d="M29 612q0 48 35 82t81 34q49 0 82.5 -34.5t33.5 -82.5v-145h227v145q0 48 34.5 82.5t82.5 34.5q47 0 81 -34t34 -82v-506q0 -48 -33.5 -82t-81.5 -34t-82 33t-34 83v160h-229v-160q0 -50 -34 -82q-15 -16 -37.5 -25t-43.5 -9q-48 0 -82 34t-34 82v506z" />
    <glyph glyph-name="I" unicode="I" horiz-adv-x="289" 
d="M29 612q0 47 34 81t82 34q47 0 81 -34t34 -82v-505q0 -48 -34.5 -81.5t-81.5 -33.5q-48 0 -81.5 34t-33.5 83v504z" />
    <glyph glyph-name="J" unicode="J" horiz-adv-x="488" 
d="M231 612q0 48 34 82t81 34t80 -35t33 -83v-358q0 -121 -66 -191t-179 -70h-15q-7 0 -15 1t-12 1l-42 7q-67 16 -101.5 50t-34.5 74q0 23 12 44q27 47 79 47q22 0 43 -7l14 -4l15 -6l14 -6l19 -4q41 -5 41 64v360z" />
    <glyph glyph-name="K" unicode="K" horiz-adv-x="681" 
d="M29 614q0 48 34 81t83 33q48 0 81 -34t33 -82v-143l203 220q14 15 34 26q9 5 23 8t26 3q34 0 63 -18t43 -51q10 -23 10 -49q0 -48 -29 -74l-158 -150l181 -201q29 -32 29 -76q0 -56 -44 -89q-19 -15 -44 -21q-8 -1 -15 -3q-6 -1 -15 -1q-54 0 -85 38l-223 270v-193
q0 -49 -33.5 -83t-81.5 -34q-47 0 -81 35t-34 83v505z" />
    <glyph glyph-name="L" unicode="L" horiz-adv-x="512" 
d="M29 612q0 48 34 82q16 16 38 25t44 9q48 0 82 -34.5t34 -82.5v-412h169q42 0 70 -29t28 -72q0 -41 -28.5 -69.5t-69.5 -28.5h-280q-54 0 -87.5 34.5t-33.5 90.5v487z" />
    <glyph glyph-name="M" unicode="M" horiz-adv-x="928" 
d="M94 602q14 87 91 116q32 12 61 12q51 0 90 -29.5t54 -79.5l74 -251l74 251q15 49 55 79t90 30q29 0 61 -12q75 -28 91 -116l81 -475q2 -9 2 -18.5v-19.5q-4 -41 -37 -69t-76 -28q-18 0 -38 6q-68 23 -76 92l-35 287l-92 -301q-20 -67 -63 -81q-22 -8 -40 -8q-70 0 -96 89
l-93 301l-34 -287q-4 -31 -24.5 -56t-51.5 -36q-20 -6 -39 -6q-43 0 -75 27t-37 70q-1 5 -1 15v11q2 8 2 12z" />
    <glyph glyph-name="N" unicode="N" horiz-adv-x="756" 
d="M29 611q0 37 19 66t53 43q21 9 43 9q52 0 98 -55l254 -298v235q0 23 9 44t26 38q36 34 81 34q47 0 81 -34t34 -82v-504l-2 -23q-8 -41 -40 -66.5t-74 -25.5q-15 0 -30.5 4t-29.5 13q-18 12 -29 25l-262 318v-244q0 -49 -33.5 -82.5t-79.5 -33.5q-50 0 -84 38t-34 89v492z
" />
    <glyph glyph-name="O" unicode="O" horiz-adv-x="806" 
d="M87 566q53 76 137 120t179 44q96 0 179 -43t137 -121q67 -95 67 -206t-67 -206q-53 -78 -136.5 -121t-179.5 -43t-179 43t-137 121q-67 96 -67 206t67 206zM555 391q-10 62 -52.5 100t-99.5 38q-65 0 -109.5 -47.5t-44.5 -121.5t44.5 -121.5t108.5 -47.5q15 0 30 3
q55 11 90.5 56.5t35.5 108.5q0 15 -3 32z" />
    <glyph glyph-name="P" unicode="P" horiz-adv-x="638" 
d="M29 594q0 57 31.5 91.5t83.5 34.5h215q122 0 199 -74t77 -184q0 -102 -65.5 -170t-175.5 -81l-44 -3h-90v-99q0 -51 -34 -84t-81 -33q-48 0 -82 35.5t-34 83.5v483zM391 424q17 17 17 39q0 21 -17 37t-39 16h-92v-108h92q23 0 39 16z" />
    <glyph glyph-name="Q" unicode="Q" horiz-adv-x="808" 
d="M790 93q28 -28 28 -69t-29 -72t-73 -31q-39 0 -67 28l-77 77l-8 -3l-22 -8q-78 -25 -145 -25q-66 0 -133 26q-110 41 -177 138t-67 206t67 206q54 78 137.5 121t178.5 43q15 0 32.5 -1.5t46.5 -7t60 -17.5q113 -43 180 -141q64 -94 64 -205q0 -54 -15 -102.5t-49 -94.5z
M535 272q22 38 22 88q0 73 -44.5 121t-109.5 48t-109.5 -47.5t-44.5 -121.5q0 -64 34.5 -109.5t89.5 -56.5q17 -3 32 -3q86 0 130 81z" />
    <glyph glyph-name="R" unicode="R" horiz-adv-x="645" 
d="M29 599q0 57 31 89t86 32h219q104 0 169.5 -46.5t85.5 -131.5q8 -35 8 -64q0 -48 -17.5 -88t-50.5 -69l-4 -4l-23 -18l-14 -11l85 -112q25 -32 25 -72q0 -58 -49 -93q-31 -22 -67 -22q-60 0 -105 65l-149 220v-169q0 -48 -33 -81t-82 -33q-47 0 -81 34t-34 83v491z
M397 481q0 17 -11 28t-26 11h-100v-86h96q19 0 31 13.5t10 33.5z" />
    <glyph glyph-name="S" unicode="S" horiz-adv-x="618" 
d="M30 193q27 42 71 42h16q3 0 19 -4l44 -12l40 -10l29 -7l11 -3l17 -3q23 -3 36 -3q8 0 16 1.5t11 2.5q18 6 25.5 12.5t7.5 16.5q0 9 -10 16l-8 3l-19 6l-13 4l-53 13l-10 2l-66 19q-28 8 -50.5 17t-41.5 21q-41 25 -63 66.5t-22 90.5q0 40 14.5 77.5t45.5 71.5t82.5 58.5
t115.5 32.5q27 3 53 3q55 0 109 -16t81 -36.5t37 -52.5q3 -9 4 -21.5t1 -13.5q0 -31 -16 -53q-29 -42 -78 -42q-28 0 -62 10l-8 3l-29 9l-12 3l-28 7l-14 3l-10 2l-13 1q-27 0 -37 -8t-10 -17q0 -6 6 -11l16 -7l19 -5l7 -2l20 -5l33 -8l66 -18q49 -14 87 -33
q53 -27 82 -74.5t29 -102.5q0 -39 -13 -74.5t-43 -70.5q-46 -54 -118 -77.5t-179 -23.5q-60 0 -103 11.5t-73 29.5q-38 22 -52 45.5t-14 58.5q0 29 17 55z" />
    <glyph glyph-name="T" unicode="T" horiz-adv-x="573" 
d="M482 720q41 0 70 -30t29 -72t-29 -70t-70 -28h-84v-415q0 -47 -33 -80t-81 -33t-81.5 33.5t-33.5 81.5v415h-79q-42 0 -70 29t-28 71t29 70t70 28h391z" />
    <glyph glyph-name="U" unicode="U" horiz-adv-x="769" 
d="M29 611q0 48 33.5 83t82.5 35q47 0 81 -34t34 -82v-297q0 -51 26 -84t74 -41q8 -2 25 -2q16 0 24 2q48 8 74 40.5t26 84.5v297q0 48 34 82t81 34q49 0 82.5 -34.5t33.5 -83.5v-288q0 -134 -75 -219t-218 -107q-8 -2 -25.5 -3.5t-37.5 -1.5q-15 0 -31 1t-32 4
q-143 22 -217.5 106.5t-74.5 219.5v288z" />
    <glyph glyph-name="V" unicode="V" horiz-adv-x="658" 
d="M329 329l118 324q13 35 41 55t65 20q26 0 52 -12q32 -16 49 -43t17 -59q0 -22 -9 -43l-224 -503q-26 -60 -71 -73q-21 -6 -41 -6q-71 0 -106 79l-224 503q-9 21 -9 43q0 69 66 102q26 12 52 12q35 0 64.5 -20t42.5 -55z" />
    <glyph glyph-name="W" unicode="W" horiz-adv-x="1010" 
d="M53 706q22 16 52 21q5 1 15 1q40 0 70 -25.5t43 -72.5l85 -291l85 300q10 35 26 55t36.5 28t41.5 8q34 0 60.5 -23.5t39.5 -67.5l85 -300l85 291q13 47 43.5 72.5t70.5 25.5q9 0 25 -2t40 -19t38 -43.5t14 -51.5q0 -11 -3 -20l-130 -472q-36 -128 -152 -128
q-50 0 -89.5 30t-55.5 80l-73 229l-73 -230q-16 -50 -55 -80t-90 -30q-116 0 -152 128l-130 473q-3 11 -3 21q0 25 13.5 50.5t37.5 42.5z" />
    <glyph glyph-name="X" unicode="X" horiz-adv-x="640" 
d="M186 387l-131 151q-29 33 -29 77q0 53 42 86q33 27 70 27q58 0 106 -63l76 -99l76 99q48 63 106 63q36 0 69 -27q21 -16 32 -39.5t11 -47.5q0 -19 -7 -39t-22 -37l-132 -151l165 -211q24 -32 24 -70q0 -58 -51 -94q-30 -21 -63 -21q-60 0 -104 64l-104 154l-104 -154
q-44 -64 -104 -64q-33 0 -61 19.5t-41 43.5t-13 54q0 36 24 68z" />
    <glyph glyph-name="Y" unicode="Y" horiz-adv-x="641" 
d="M320 533l114 138q47 57 102 57q34 0 67 -25q19 -14 31 -36q16 -29 16 -60q0 -36 -23 -62l-191 -207v-230q0 -47 -33 -82.5t-82 -35.5q-48 0 -82 34.5t-34 83.5v230l-191 207q-23 25 -23 63q0 17 3 29.5t14 32t30 33.5q34 25 68 25q54 0 101 -57z" />
    <glyph glyph-name="Z" unicode="Z" horiz-adv-x="698" 
d="M317 521h-191q-42 0 -71.5 30.5t-29.5 69.5q0 42 30.5 70.5t70.5 28.5h415l24 -3q38 -9 60.5 -37.5t22.5 -62.5q0 -20 -9 -40l-18 -27l-280 -351h245q41 0 70 -29t29 -71q0 -41 -29 -70t-71 -29h-463q-48 0 -78.5 28.5t-30.5 70.5q0 11 4.5 29t16.5 35z" />
    <glyph glyph-name="bracketleft" unicode="[" horiz-adv-x="397" 
d="M38 753q0 36 21 58t54 22h176q41 0 70 -29t29 -70t-28 -70t-69 -29h-23v-550h23q39 0 68 -29t29 -70t-29 -70t-70 -29h-176q-32 0 -53.5 22.5t-21.5 57.5v786z" />
    <glyph glyph-name="backslash" unicode="\" horiz-adv-x="328" 
d="M29 720h144l126 -720h-144z" />
    <glyph glyph-name="bracketright" unicode="]" horiz-adv-x="397" 
d="M129 85v550h-23q-39 0 -68 29t-29 70t29 70t70 29h177q31 0 52.5 -22.5t21.5 -57.5v-786q0 -36 -21 -58t-53 -22h-177q-41 0 -70 29t-29 70t28 70t69 29h23z" />
    <glyph glyph-name="asciicircum" unicode="^" horiz-adv-x="525" 
d="M29 149l233 422l234 -422h-164l-70 146l-69 -146h-164z" />
    <glyph glyph-name="underscore" unicode="_" horiz-adv-x="418" 
d="M29 -43v43h360v-43h-360z" />
    <glyph glyph-name="grave" unicode="`" horiz-adv-x="311" 
d="M91 794l182 -74q20 -8 32 -26t12 -39q0 -14 -6 -28q-17 -44 -66 -44q-16 0 -26 5l-182 71q-21 8 -33.5 26.5t-12.5 41.5q0 16 5 27q18 45 69 45q15 0 26 -5z" />
    <glyph glyph-name="a" unicode="a" 
d="M488 555q6 1 11 1h12q19 0 32 -3.5t23 -13.5q41 -41 41 -100v-336q0 -51 -31 -81t-79 -30q-26 0 -61 26q-11 8 -30 26v-5q0 -27 -26.5 -38.5t-71.5 -11.5q-39 0 -84 8.5t-87 37.5t-74 77q-22 35 -32.5 77t-10.5 90q0 100 62.5 174.5t150.5 91.5q28 5 49 5q75 0 124 -47
q5 9 10 14q30 34 72 38zM381 220q3 5 6 12t4.5 18t1.5 18q-1 7 -1 11q-7 51 -46 68q-19 7 -31 7q-26 0 -46 -19t-26 -52l-2 -18q0 -33 21.5 -59.5t53.5 -26.5q44 0 65 41z" />
    <glyph glyph-name="b" unicode="b" 
d="M29 674q0 45 32 78t78 33q47 0 79.5 -32.5t32.5 -79.5v-143l17 6q41 14 86 14h19t27 -4q82 -15 137.5 -70.5t72.5 -140.5q6 -29 6 -59q0 -104 -62.5 -184t-151.5 -95q-28 -5 -49 -5q-80 0 -127 52v4q-18 -18 -29 -27q-34 -27 -59 -27q-50 0 -79.5 29.5t-29.5 82.5v568z
M394 264q0 40 -21 65.5t-53 25.5q-9 0 -13 -1q-52 -8 -63 -69l-1 -19q0 -38 21.5 -61.5t54.5 -23.5q6 0 16 2q26 6 42.5 27t16.5 54z" />
    <glyph glyph-name="c" unicode="c" horiz-adv-x="549" 
d="M88 444q15 16 21.5 22.5t21.5 17.5q76 58 190 58h21.5t24.5 -2q83 -9 125.5 -41t42.5 -78q0 -11 -1 -17q-6 -37 -33 -58t-66 -21l-17 2l-5 1l-26 6l-13 3l-21 4q-15 3 -28 3q-40 0 -62.5 -22.5t-22.5 -58.5q0 -39 39 -62q20 -11 46 -11q12 0 30 3l38 8q16 4 18 4
q6 1 20 1q45 0 75.5 -26.5t30.5 -67.5q0 -10 -1 -15q-7 -50 -57.5 -77.5t-154.5 -27.5q-82 0 -144.5 29.5t-103.5 85.5q-27 37 -41.5 79t-14.5 85q0 92 68 173z" />
    <glyph glyph-name="d" unicode="d" horiz-adv-x="638" 
d="M388 675q0 46 32 78t79 32q46 0 78 -33t32 -79v-569q0 -51 -31.5 -80.5t-78.5 -29.5q-27 0 -62 27q-11 9 -30 28v-4q0 -29 -28.5 -42t-74.5 -13q-20 0 -40 2.5t-30 4.5q-79 15 -135.5 74t-73.5 147q-4 28 -4.5 39t-0.5 18q0 33 7 61q14 59 46.5 104t80.5 73q58 34 121 34
q46 0 96 -18l17 -7v153zM392 256q2 10 2 16q0 5 -2 17q-5 28 -20.5 45.5t-33 21t-23.5 3.5q-60 0 -73 -72l-1 -16q0 -40 22.5 -64.5t55.5 -24.5q28 0 47.5 19.5t25.5 54.5z" />
    <glyph glyph-name="e" unicode="e" horiz-adv-x="621" 
d="M253 217l18 -19q35 -27 115 -27q26 0 77 14q36 9 50 9q38 0 62.5 -22.5t24.5 -56.5q0 -13 -2 -19q-8 -28 -29.5 -46.5t-70.5 -35.5q-20 -6 -41 -10.5t-39.5 -7t-37.5 -3.5t-34 -1q-149 0 -237.5 81.5t-88.5 204.5q0 113 85.5 191t212.5 78q41 0 78 -10t71 -29
q60 -35 98.5 -92.5t38.5 -110.5q0 -48 -20 -68t-71 -20h-260zM373 335q-8 48 -56 48q-8 0 -12 -1q-35 -8 -48 -48l-2 -9h119z" />
    <glyph glyph-name="f" unicode="f" horiz-adv-x="362" 
d="M72 541v52q0 87 42 137t108 50h47q62 0 100 -31.5t38 -75.5q0 -14 -4 -26q-19 -64 -78 -64l-9 -1h-4l-7 -3q-7 -3 -9 -8q-3 -4 -5 -9v-3l1 -18h6q39 0 67 -29t28 -70q0 -40 -28 -68t-68 -28h-6v-245q0 -45 -32 -78t-78 -33q-47 0 -79 32t-32 80v245h-4q-42 5 -70 33.5
t-28 66.5t29 66t70 28h5z" />
    <glyph glyph-name="g" unicode="g" horiz-adv-x="635" 
d="M405 497q7 17 14 26q24 28 68 33q8 1 22 1q37 0 56 -19q41 -43 41 -102v-339q0 -173 -85.5 -258t-249.5 -85q-44 0 -78.5 9t-62.5 25q-39 21 -59.5 47.5t-20.5 53.5q0 21 10 41q25 51 79 51q20 0 38 -7l35 -13l16 -6q40 -13 66 -13q8 1 12 1q71 8 77 60l1 13
q-43 -27 -101 -27q-21 0 -51 5q-46 9 -86 33q-60 37 -93 98t-33 137q0 107 61 185.5t152 95.5q12 3 25.5 4t27.5 1q37 0 67 -11.5t52 -34.5v-5zM394 250q2 16 2 22q0 7 -1 10q-6 34 -26.5 53.5t-49.5 19.5q-9 0 -24.5 -4.5t-32.5 -21.5q-21 -24 -21 -61t21.5 -59.5
t54.5 -22.5q10 0 21 3q43 12 56 61z" />
    <glyph glyph-name="h" unicode="h" horiz-adv-x="616" 
d="M29 676q0 45 32.5 77.5t78.5 32.5q47 0 79.5 -32.5t32.5 -78.5v-160l39 17q51 16 98 16q89 0 143.5 -52.5t54.5 -135.5v-260q0 -48 -33 -80t-81 -32q-46 0 -78 33t-32 80v209q0 23 -15.5 39.5t-38.5 16.5t-40 -16t-17 -39v-210q0 -46 -33 -78t-80 -32q-46 0 -78 32
t-32 79v574z" />
    <glyph glyph-name="i" unicode="i" horiz-adv-x="286" 
d="M32 436q0 47 32 79t80 32q45 0 78 -33t33 -79v-332q0 -47 -32.5 -79.5t-79.5 -32.5t-79 32t-32 79v334zM61 771q36 34 82 34q48 0 82.5 -35t34.5 -84t-34.5 -83.5t-82.5 -34.5t-82.5 34.5t-34.5 84.5q0 49 35 84z" />
    <glyph glyph-name="j" unicode="j" horiz-adv-x="285" 
d="M33 434q0 45 32.5 78.5t78.5 33.5t78.5 -33t32.5 -80v-568q0 -47 -33 -79t-80 -32q-45 0 -77 32t-32 78v570zM62 777q33 33 81 33q46 0 78 -31q39 -36 39 -90q0 -46 -32 -83q-16 -18 -38 -28t-46 -10q-50 0 -84 36.5t-34 89.5q0 24 9 44t27 39z" />
    <glyph glyph-name="k" unicode="k" horiz-adv-x="564" 
d="M29 675q0 45 32.5 77.5t77.5 32.5t78 -32t33 -78v-276l79 102q14 19 39 32t53 13q18 0 35 -6q34 -11 53 -37.5t19 -61.5q0 -26 -11.5 -48t-29.5 -42l-54 -55l113 -131q22 -27 22 -64q0 -25 -12 -49q-20 -43 -68 -57q-13 -4 -32 -4q-59 0 -90 47l-116 169v-107
q0 -46 -32 -78.5t-79 -32.5q-45 0 -77.5 33t-32.5 79v574z" />
    <glyph glyph-name="l" unicode="l" horiz-adv-x="280" 
d="M29 675q0 45 33 77t80 32q45 0 77 -33t32 -78v-570q0 -46 -32 -79t-79 -33q-46 0 -78.5 32.5t-32.5 78.5v573z" />
    <glyph glyph-name="m" unicode="m" horiz-adv-x="918" 
d="M29 436q0 48 30.5 79.5t81.5 31.5q35 0 62 -21q9 -7 20 -21l1 3q5 15 27 19.5t39 8.5q41 12 78 12q66 0 129 -40l20 -13l28 15q12 6 33 14.5t29 11.5q40 13 81 13q85 0 143 -54t58 -134v-259q0 -45 -32 -78t-78 -33q-47 0 -80 32t-33 79v204q0 21 -14 35t-35 14
q-20 0 -34.5 -13.5t-14.5 -34.5v-206q0 -47 -32 -79t-78 -32t-78 33t-32 79v207q0 20 -13.5 34.5t-33.5 14.5q-21 0 -36.5 -14.5t-15.5 -33.5v-208q0 -47 -31.5 -79t-77.5 -32t-78.5 32.5t-32.5 78.5v334z" />
    <glyph glyph-name="n" unicode="n" horiz-adv-x="616" 
d="M29 436q0 49 32 80t78 31q39 0 67 -27q9 -9 21 -28q4 4 5 6q5 6 9 8q66 42 137 42q13 0 21 -1t26 -4q74 -15 118 -66.5t44 -117.5v-256q0 -46 -32 -79t-79 -33t-80 32t-33 79v208q0 24 -17 39q-16 17 -39 17t-39.5 -16.5t-16.5 -39.5v-207q0 -46 -32 -78.5t-79 -32.5
t-79 33t-32 78v333z" />
    <glyph glyph-name="o" unicode="o" horiz-adv-x="632" 
d="M316 550q117 0 199 -71q48 -41 72.5 -95.5t24.5 -113.5q0 -74 -37 -138.5t-106.5 -103.5t-152.5 -39q-125 0 -210.5 80.5t-85.5 197.5q0 118 84.5 200.5t211.5 82.5zM392 248q2 14 2 21q0 28 -13 49q-24 39 -65 39t-65 -39q-13 -21 -13 -50q0 -40 23 -66.5t55 -26.5
q5 0 15 2q52 11 61 71z" />
    <glyph glyph-name="p" unicode="p" 
d="M29 437q0 48 33 79t80 31q31 0 62 -25q10 -8 25 -25v5q0 18 35 33.5t83 15.5q41 0 80.5 -12t78.5 -40t67 -74.5t38 -103.5q5 -32 5 -56q0 -32 -7 -60q-16 -74 -58.5 -125t-108.5 -75q-44 -15 -85 -15q-42 0 -87 16l-21 8v-156q0 -46 -32.5 -78.5t-77.5 -32.5
q-46 0 -78 33.5t-32 78.5v578zM395 281q-4 28 -21 46t-31 20.5t-24 2.5q-32 0 -53 -24t-21 -64q0 -38 22 -62t53 -24q32 0 54 24t22 63q0 12 -1 18z" />
    <glyph glyph-name="q" unicode="q" horiz-adv-x="634" 
d="M404 494q9 22 17 32q27 33 69 33q29 0 44.5 -3t28.5 -16q42 -44 42 -104v-580q0 -45 -31.5 -77.5t-76.5 -32.5q-47 0 -80 32t-33 79v154q-33 -14 -70 -19q-8 -1 -15.5 -1.5t-17.5 -0.5q-110 0 -185.5 78.5t-75.5 193.5q0 31 6 64t19 60q34 78 97 120.5t134 42.5
q78 0 128 -50v-5zM328 180q51 8 62 67q2 10 2 17q0 6 -3 25t-19 38q-21 25 -54 25q-35 0 -56 -27q-7 -9 -12.5 -21.5t-6.5 -27.5l-1 -15l1 -14q12 -68 72 -68q10 0 15 1z" />
    <glyph glyph-name="r" unicode="r" horiz-adv-x="420" 
d="M29 436q0 46 32.5 78.5t78.5 32.5q54 0 84 -35q10 -11 19 -35l18 25q17 25 37.5 34t47.5 9q16 0 28 -4q29 -8 49.5 -28.5t25.5 -48.5q2 -8 2 -24q0 -70 -102 -103l-20 -8q-51 -22 -65 -43.5t-14 -79.5v-97q0 -48 -32 -82t-78 -34t-78.5 31.5t-32.5 76.5v335z" />
    <glyph glyph-name="s" unicode="s" horiz-adv-x="509" 
d="M149 187l20 -6l14 -5q20 -8 33.5 -11.5t26.5 -5.5h6h12q13 0 18 9q5 12 -11 22l-7 4l-9 3l-20 5l-26 8l-19 5q-68 18 -100.5 41t-48.5 61q-11 25 -11 56q0 71 65 122q69 54 179 54q58 0 98 -11t64 -24.5t36.5 -30t12.5 -40.5t-15 -44t-41 -27q-12 -3 -25 -3
q-15 0 -22 1.5t-27 6.5l-30 7l-15 4l-16 3l-11 2q-16 2 -19 2q-8 0 -14 -3l-2 -2l-3 -3q-9 -9 7 -20l7 -4l9 -3l15 -5l35 -11l25 -7l22 -8q19 -6 33 -13.5t33 -19.5q33 -24 50.5 -56.5t17.5 -69.5q0 -36 -16.5 -69t-51.5 -60q-30 -24 -72.5 -37.5t-96.5 -13.5q-11 0 -23.5 1
t-19.5 1q-45 0 -79.5 10.5t-63.5 27.5q-64 38 -64 85q0 14 4 25q8 25 31.5 40.5t55.5 15.5q22 0 49 -9z" />
    <glyph glyph-name="t" unicode="t" horiz-adv-x="385" 
d="M83 541v47q0 47 33.5 79.5t78.5 32.5q46 0 78.5 -34t32.5 -80v-45h13q37 0 65.5 -27t28.5 -66q0 -37 -26 -63q-30 -30 -68 -30h-14v-251q0 -47 -32.5 -80t-78.5 -33t-79 34t-33 80v252h-8q-42 0 -72 30q-26 26 -26 62q0 39 29 65.5t68 26.5h10z" />
    <glyph glyph-name="u" unicode="u" horiz-adv-x="613" 
d="M29 436q0 46 32.5 78.5t79.5 32.5q46 0 78.5 -33.5t32.5 -79.5v-190q0 -28 12.5 -42t31.5 -18q32 -5 51 18q13 13 13 42v190q0 47 33 80t79 33q47 0 79.5 -32.5t32.5 -78.5v-193q0 -116 -54.5 -176.5t-171.5 -74.5q-26 -3 -51 -3q-26 0 -52 3q-117 14 -171.5 74.5
t-54.5 176.5v193z" />
    <glyph glyph-name="v" unicode="v" horiz-adv-x="533" 
d="M267 296l57 178q11 32 41 52.5t67 20.5q47 0 79 -32t32 -78q-1 -8 -1 -12q-3 -24 -13 -42l-156 -310q-39 -79 -103 -79q-19 0 -40.5 7t-36.5 22t-33 50l-156 310q-12 22 -12 42q-1 8 -1 13q0 44 31.5 76.5t78.5 32.5q39 0 68.5 -20t39.5 -53z" />
    <glyph glyph-name="w" unicode="w" horiz-adv-x="841" 
d="M260 315l47 136q34 100 110 100q19 0 42.5 -7t41.5 -28.5t33 -64.5l47 -136l58 164q11 31 41.5 50.5t67.5 19.5q12 0 22 -3t23 -9q28 -14 44.5 -40.5t16.5 -58.5q0 -29 -13 -56l-153 -310q-20 -40 -46.5 -57.5t-63.5 -17.5q-32 0 -59 20t-41 54l-58 142l-58 -142
q-14 -35 -39.5 -54.5t-59.5 -19.5q-36 0 -63 17.5t-47 57.5l-153 310q-14 27 -14 57q0 68 62 98q14 7 22.5 9.5t22.5 2.5q37 0 67 -19t42 -51z" />
    <glyph glyph-name="x" unicode="x" horiz-adv-x="587" 
d="M150 281l-91 71q-18 14 -28 37t-10 48q0 22 7 40q12 32 40.5 51.5t62.5 19.5q29 0 56 -15q20 -11 32 -29l75 -100l74 100q12 18 32 29q27 15 56 15q34 0 62.5 -19.5t40.5 -51.5q7 -18 7 -41q0 -55 -37 -84l-92 -71l120 -97q36 -30 36 -78q0 -46 -33.5 -80t-77.5 -34
q-54 0 -94 49l-94 118l-95 -118q-40 -49 -94 -49q-44 0 -77 34q-18 19 -25.5 38.5t-7.5 42.5q0 48 35 77z" />
    <glyph glyph-name="y" unicode="y" horiz-adv-x="518" 
d="M265 305l51 152q3 9 9 22t11 23q13 22 35 34t50 12q24 0 45.5 -9t39.5 -29q27 -29 27 -70q0 -27 -11 -50l-246 -560q-35 -80 -103 -80q-17 0 -35 6q-34 10 -54.5 36.5t-20.5 59.5q0 22 11 46l77 156l-153 344q-8 19 -8 39q0 31 17.5 58.5t45 40.5t50.5 13q74 0 106 -89z
" />
    <glyph glyph-name="z" unicode="z" horiz-adv-x="574" 
d="M454 541l27 -2q27 -4 44.5 -24.5t17.5 -48.5q0 -18 -7 -33l-12 -19l-184 -219h130q40 0 69 -28t29 -69q0 -40 -28 -69t-68 -29h-363l-28 1q-31 3 -50.5 23.5t-19.5 50.5q0 19 9 39l11 16l183 216h-104q-40 0 -68.5 28.5t-28.5 68.5t28 69t68 29h345z" />
    <glyph glyph-name="braceleft" unicode="{" horiz-adv-x="410" 
d="M96 432v310q0 48 26 74t73 26h143q17 0 30 -13t13 -31t-13 -30t-30 -12h-13q-30 0 -43 -11t-13 -37v-254q0 -64 -62 -88l-27 -6l27 -6q28 -11 45 -35t17 -53v-254q0 -48 56 -48h13q17 0 30 -13t13 -31t-13 -30t-30 -12h-143q-47 0 -73 26t-26 74v310q0 30 -19 51t-48 21
q29 0 48 20t19 52z" />
    <glyph glyph-name="braceright" unicode="}" horiz-adv-x="410" 
d="M214 842q47 0 73.5 -26.5t26.5 -73.5v-310q0 -30 19 -51t48 -21q-29 0 -48 -20t-19 -52v-310q0 -48 -26 -74t-74 -26h-143q-18 0 -30 13t-12 31t12 30t30 12h13q57 0 57 48v254q0 64 62 88l27 6l-27 6q-28 11 -45 35t-17 53v254q0 48 -57 48h-13q-18 0 -30 13t-12 31
t12 30t30 12h143z" />
    <glyph glyph-name="asciitilde" unicode="~" horiz-adv-x="519" 
d="M29 265l1 28q8 84 43.5 127t91.5 43q27 0 64 -13l85 -32l20 -7q9 -4 18 -4q18 0 28 31l4 17l1 9h105l-2 -27q-7 -84 -42 -127t-92 -43q-18 0 -33.5 3.5t-31.5 9.5l-84 31l-21 8q-12 4 -16 4q-19 0 -29 -31q-4 -10 -4 -17l-1 -10h-105z" />
    <glyph glyph-name="Adieresis" unicode="&#xc4;" horiz-adv-x="686" 
d="M-3 160l172 440q24 60 69.5 93t104.5 33t104.5 -32.5t69.5 -93.5l172 -440q13 -36 13 -61q0 -34 -18 -60t-52 -40q-23 -10 -48 -10q-36 0 -65 21.5t-43 60.5l-11 33h-243l-12 -33q-14 -38 -43.5 -60t-65.5 -22q-24 0 -47 10q-70 30 -70 100q0 25 13 61zM88 739
q0 31 21 51.5t50 20.5q30 0 50.5 -21.5t20.5 -49.5q0 -31 -21.5 -51t-50.5 -20t-49.5 21.5t-20.5 48.5zM456 739q0 29 20.5 50.5t51.5 21.5q29 0 49.5 -20.5t20.5 -50.5t-20.5 -50.5t-50.5 -20.5q-29 0 -50 20t-21 50zM397 303l-54 192l-54 -192h108z" />
    <glyph glyph-name="Aring" unicode="&#xc5;" horiz-adv-x="686" 
d="M-3 160l172 440q35 88 112 114q-33 13 -52 38.5t-19 57.5q0 46 36 75q44 36 101 36q55 0 96 -34q37 -28 37 -76q0 -33 -19 -56q-19 -26 -54 -39q76 -32 110 -116l172 -440q13 -36 13 -61q0 -34 -18 -60t-52 -40q-23 -10 -48 -10q-36 0 -65 21.5t-43 60.5l-11 33h-243
l-12 -33q-14 -38 -43.5 -60t-65.5 -22q-24 0 -47 10q-70 30 -70 100q0 25 13 61zM397 303l-54 192l-54 -192h108zM347 789q11 0 17.5 7.5t6.5 17.5q0 9 -7.5 16.5t-17.5 7.5q-26 0 -26 -24q0 -11 8 -18t19 -7z" />
    <glyph glyph-name="Ccedilla" unicode="&#xc7;" horiz-adv-x="672" 
d="M20 364q0 56 22 115t63 109q93 113 244 134q42 6 79 6q106 0 169 -44q56 -39 56 -93q0 -34 -20 -59q-15 -19 -32.5 -28t-41.5 -9q-20 0 -38.5 3t-27.5 6q-21 8 -33 12.5t-24.5 6t-32.5 1.5q-57 0 -99 -33.5t-55 -95.5q-3 -17 -3 -32t3 -32q24 -127 142 -127q48 0 115 23
l10 3q17 4 37 4q48 0 76 -31q25 -28 25 -62q0 -30 -21 -62q-13 -19 -36 -35.5t-61 -30.5q-51 -20 -122 -20q-35 0 -74 6q-104 17 -181 80q-29 24 -57 58q-82 107 -82 227zM258 -69l46 52h139l-101 -119q-15 -18 -40 -18q-20 0 -37.5 16t-17.5 38q0 18 11 31z" />
    <glyph glyph-name="Eacute" unicode="&#xc9;" horiz-adv-x="531" 
d="M29 118v486q0 50 33 83t83 33h275q39 0 68 -29t29 -71q0 -41 -29 -71t-70 -30h-158v-61h130q44 0 77 -31q30 -27 30 -67t-31 -69q-34 -29 -75 -29h-131v-62h150q45 0 77 -29.5t32 -71.5q0 -40 -31.5 -69.5t-74.5 -29.5h-269q-33 0 -62 20t-44 54q-9 21 -9 44zM149 900
l182 72q15 5 26 5q21 0 39.5 -12.5t25.5 -29t7 -30.5q0 -21 -12.5 -39.5t-31.5 -26.5l-182 -74q-3 -2 -11 -3.5t-16 -1.5q-23 0 -41.5 12t-26.5 34q-2 4 -3.5 11.5t-1.5 15.5q0 22 12 40.5t34 26.5z" />
    <glyph glyph-name="Ntilde" unicode="&#xd1;" horiz-adv-x="756" 
d="M29 119v492q0 37 19 66t53 43q21 9 43 9q52 0 98 -55l254 -298v235q0 23 9 44t26 38q36 34 81 34q47 0 81 -34t34 -82v-504l-2 -23q-8 -41 -40 -66.5t-74 -25.5q-15 0 -30.5 4t-29.5 13q-18 12 -29 25l-262 318v-244q0 -49 -33.5 -82.5t-79.5 -33.5q-50 0 -84 38t-34 89z
M239 915h271q28 0 48 -19t20 -49q0 -29 -20 -49t-49 -20h-271q-25 0 -43.5 20.5t-18.5 49.5q0 28 18.5 47.5t44.5 19.5z" />
    <glyph glyph-name="Odieresis" unicode="&#xd6;" horiz-adv-x="806" 
d="M20 360q0 110 67 206q53 76 137 120t179 44q96 0 179 -43t137 -121q67 -95 67 -206t-67 -206q-53 -78 -136.5 -121t-179.5 -43t-179 43t-137 121q-67 96 -67 206zM36 735q0 30 21.5 50.5t51.5 20.5q27 0 48.5 -20.5t21.5 -50.5t-21.5 -50.5t-49.5 -20.5q-30 0 -51 21
t-21 50zM627 735q0 29 20 50t49 21q32 0 53 -20.5t21 -50.5q0 -29 -21 -50t-51 -21q-29 0 -50 21t-21 50zM432 194q55 11 90.5 56.5t35.5 108.5q0 15 -3 32q-10 62 -52.5 100t-99.5 38q-65 0 -109.5 -47.5t-44.5 -121.5t44.5 -121.5t108.5 -47.5q15 0 30 3z" />
    <glyph glyph-name="Udieresis" unicode="&#xdc;" horiz-adv-x="769" 
d="M29 323v288q0 48 33.5 83t82.5 35q47 0 81 -34t34 -82v-297q0 -51 26 -84t74 -41q8 -2 25 -2q16 0 24 2q48 8 74 40.5t26 84.5v297q0 48 34 82t81 34q49 0 82.5 -34.5t33.5 -83.5v-288q0 -134 -75 -219t-218 -107q-8 -2 -25.5 -3.5t-37.5 -1.5q-15 0 -31 1t-32 4
q-143 22 -217.5 106.5t-74.5 219.5zM227 739q0 30 21.5 50.5t49.5 20.5q29 0 49.5 -20.5t20.5 -50.5t-20.5 -50t-49.5 -20q-28 0 -49.5 20.5t-21.5 49.5zM401 739q0 30 20.5 50.5t49.5 20.5q28 0 49.5 -20.5t21.5 -50.5q0 -31 -22 -50q-19 -20 -49 -20q-29 0 -50 21
q-10 10 -15 22t-5 27z" />
    <glyph glyph-name="aacute" unicode="&#xe1;" 
d="M406 503l92 46q13 7 28 7q23 0 40 -17q41 -41 41 -100v-336q0 -48 -29 -80t-70 -32q-7 1 -11 1l-91 52v-5q-22 -23 -53 -35.5t-70 -12.5q-25 0 -57 6q-47 9 -89 38t-74 77q-22 35 -32.5 77t-10.5 90q0 100 62.5 174.5t150.5 91.5q28 5 49 5q75 0 124 -47zM202 721l182 72
q15 5 26 5q21 0 39.5 -12.5t25.5 -29t7 -30.5q0 -21 -12.5 -39.5t-31.5 -26.5l-182 -74q-3 -2 -11 -3.5t-16 -1.5q-23 0 -41.5 12t-26.5 34q-2 4 -3.5 11.5t-1.5 15.5q0 22 12 40.5t34 26.5zM261 206q23 -27 55 -27q44 0 65 41q3 5 6 12t4.5 18t1.5 18q-1 7 -1 11
q-7 51 -46 68q-19 7 -31 7q-26 0 -46 -19t-26 -52l-2 -18q0 -33 20 -59z" />
    <glyph glyph-name="agrave" unicode="&#xe0;" 
d="M406 503l92 46q13 7 28 7q23 0 40 -17q41 -41 41 -100v-336q0 -48 -29 -80t-70 -32q-7 1 -11 1l-91 52v-5q-22 -23 -53 -35.5t-70 -12.5q-25 0 -57 6q-47 9 -89 38t-74 77q-22 35 -32.5 77t-10.5 90q0 100 62.5 174.5t150.5 91.5q28 5 49 5q75 0 124 -47zM254 794
l182 -74q20 -8 32 -26t12 -39q0 -14 -6 -28q-17 -44 -66 -44q-16 0 -26 5l-182 71q-21 8 -33.5 26.5t-12.5 41.5q0 16 5 27q18 45 69 45q15 0 26 -5zM261 206q23 -27 55 -27q44 0 65 41q3 5 6 12t4.5 18t1.5 18q-1 7 -1 11q-7 51 -46 68q-19 7 -31 7q-26 0 -46 -19t-26 -52
l-2 -18q0 -33 20 -59z" />
    <glyph glyph-name="acircumflex" unicode="&#xe2;" 
d="M406 503l92 46q13 7 28 7q23 0 40 -17q41 -41 41 -100v-336q0 -48 -29 -80t-70 -32q-7 1 -11 1l-91 52v-5q-22 -23 -53 -35.5t-70 -12.5q-25 0 -57 6q-47 9 -89 38t-74 77q-22 35 -32.5 77t-10.5 90q0 100 62.5 174.5t150.5 91.5q28 5 49 5q75 0 124 -47zM139 720l141 57
q27 10 38 10q10 0 18.5 -3t18.5 -7l137 -56q27 -11 40 -38q6 -15 6 -30q0 -46 -43 -65q-18 -7 -30 -7q-14 0 -26 6l-122 49l-124 -51q-13 -5 -26 -5q-21 0 -39.5 12.5t-25 28.5t-6.5 34q0 47 43 65zM261 206q23 -27 55 -27q44 0 65 41q3 5 6 12t4.5 18t1.5 18q-1 7 -1 11
q-7 51 -46 68q-19 7 -31 7q-26 0 -46 -19t-26 -52l-2 -18q0 -33 20 -59z" />
    <glyph glyph-name="adieresis" unicode="&#xe4;" 
d="M406 503l92 46q13 7 28 7q23 0 40 -17q41 -41 41 -100v-336q0 -48 -29 -80t-70 -32q-7 1 -11 1l-91 52v-5q-22 -23 -53 -35.5t-70 -12.5q-25 0 -57 6q-47 9 -89 38t-74 77q-22 35 -32.5 77t-10.5 90q0 100 62.5 174.5t150.5 91.5q28 5 49 5q75 0 124 -47zM134 664
q0 41 28 69t68 28q41 0 68 -28t27 -66q0 -42 -28 -69t-68 -27q-39 0 -67 28t-28 65zM342 664q0 40 27 69t67 29q41 0 69.5 -28.5t28.5 -67.5q0 -40 -29 -67q-26 -28 -66 -28q-39 0 -68 27t-29 66zM261 206q23 -27 55 -27q44 0 65 41q7 13 9.5 27t2.5 21q-1 7 -1 11
q-9 62 -61 73q-5 1 -15 1q-27 0 -47 -18t-26 -52l-2 -18q0 -35 20 -59z" />
    <glyph glyph-name="atilde" unicode="&#xe3;" 
d="M406 503l92 46q13 7 28 7q23 0 40 -17q41 -41 41 -100v-336q0 -48 -29 -80t-70 -32q-7 1 -11 1l-91 52v-5q-22 -23 -53 -35.5t-70 -12.5q-25 0 -57 6q-47 9 -89 38t-74 77q-22 35 -32.5 77t-10.5 90q0 100 62.5 174.5t150.5 91.5q28 5 49 5q75 0 124 -47zM179 736h271
q28 0 48 -19t20 -49q0 -29 -20 -49t-49 -20h-271q-25 0 -43.5 20.5t-18.5 49.5q0 28 18.5 47.5t44.5 19.5zM261 206q23 -27 55 -27q44 0 65 41q3 5 6 12t4.5 18t1.5 18q-1 7 -1 11q-7 51 -46 68q-19 7 -31 7q-26 0 -46 -19t-26 -52l-2 -18q0 -33 20 -59z" />
    <glyph glyph-name="aring" unicode="&#xe5;" 
d="M406 503l92 46q13 7 28 7q23 0 40 -17q41 -41 41 -100v-336q0 -48 -29 -80t-70 -32q-7 1 -11 1l-91 52v-5q-22 -23 -53 -35.5t-70 -12.5q-25 0 -57 6q-47 9 -89 38t-74 77q-22 35 -32.5 77t-10.5 90q0 100 62.5 174.5t150.5 91.5q28 5 49 5q75 0 124 -47zM212 675
q0 45 36 77t93 32q53 0 93 -34q35 -30 35 -75q0 -44 -34 -74q-39 -36 -92 -36q-57 0 -94 32.5t-37 77.5zM252 220q21 -41 65 -41q32 0 55 27q16 19 18.5 37t2.5 25q-1 7 -1 11q-9 62 -61 73q-5 1 -15 1q-27 0 -47 -18t-26 -52l-2 -18q0 -26 11 -45zM341 647q13 2 20 9t7 19
t-8 19.5t-19 7.5t-20 -8t-9 -19q0 -12 8 -20t21 -8z" />
    <glyph glyph-name="ccedilla" unicode="&#xe7;" horiz-adv-x="546" 
d="M20 271q0 92 68 173q15 16 21.5 22.5t21.5 17.5q76 58 190 58h21.5t24.5 -2q83 -9 125.5 -41t42.5 -78q0 -11 -1 -17q-6 -37 -33 -58t-66 -21l-17 2l-5 1l-26 6l-13 3l-21 4q-15 3 -28 3q-40 0 -62.5 -22.5t-22.5 -58.5q0 -39 39 -62q20 -11 46 -11q12 0 30 3l38 8
q16 4 18 4q6 1 20 1q45 0 75.5 -26.5t30.5 -67.5q0 -10 -1 -15q-7 -50 -57.5 -77.5t-154.5 -27.5q-82 0 -144.5 29.5t-103.5 85.5q-27 37 -41.5 79t-14.5 85zM197 -71l46 51h138l-100 -118q-15 -18 -40 -18q-21 0 -38.5 16t-17.5 38q0 17 12 31z" />
    <glyph glyph-name="eacute" unicode="&#xe9;" horiz-adv-x="621" 
d="M513 217h-260l18 -19q35 -27 115 -27q26 0 77 14q36 9 50 9q38 0 62.5 -22.5t24.5 -56.5q0 -13 -2 -19q-8 -28 -29.5 -46.5t-70.5 -35.5q-20 -6 -41 -10.5t-39.5 -7t-37.5 -3.5t-34 -1q-149 0 -237.5 81.5t-88.5 204.5q0 113 85.5 191t212.5 78q41 0 78 -10t71 -29
q60 -35 98.5 -92.5t38.5 -110.5q0 -48 -20 -68t-71 -20zM194 721l182 72q15 5 26 5q21 0 39.5 -12.5t25.5 -29t7 -30.5q0 -21 -12.5 -39.5t-31.5 -26.5l-182 -74q-3 -2 -11 -3.5t-16 -1.5q-23 0 -41.5 12t-26.5 34q-2 4 -3.5 11.5t-1.5 15.5q0 22 12 40.5t34 26.5zM374 325
l-1 10q-8 48 -56 48q-8 0 -12 -1q-35 -8 -48 -48l-2 -9h119z" />
    <glyph glyph-name="egrave" unicode="&#xe8;" horiz-adv-x="621" 
d="M513 217h-260l18 -19q35 -27 115 -27q26 0 77 14q36 9 50 9q38 0 62.5 -22.5t24.5 -56.5q0 -13 -2 -19q-8 -28 -29.5 -46.5t-70.5 -35.5q-20 -6 -41 -10.5t-39.5 -7t-37.5 -3.5t-34 -1q-149 0 -237.5 81.5t-88.5 204.5q0 113 85.5 191t212.5 78q41 0 78 -10t71 -29
q60 -35 98.5 -92.5t38.5 -110.5q0 -48 -20 -68t-71 -20zM246 794l182 -74q20 -8 32 -26t12 -39q0 -14 -6 -28q-17 -44 -66 -44q-16 0 -26 5l-182 71q-21 8 -33.5 26.5t-12.5 41.5q0 16 5 27q18 45 69 45q15 0 26 -5zM374 325l-1 10q-8 48 -56 48q-8 0 -12 -1q-35 -8 -48 -48
l-2 -9h119z" />
    <glyph glyph-name="ecircumflex" unicode="&#xea;" horiz-adv-x="621" 
d="M513 217h-260l18 -19q35 -27 115 -27q26 0 77 14q36 9 50 9q38 0 62.5 -22.5t24.5 -56.5q0 -13 -2 -19q-8 -28 -29.5 -46.5t-70.5 -35.5q-20 -6 -41 -10.5t-39.5 -7t-37.5 -3.5t-34 -1q-149 0 -237.5 81.5t-88.5 204.5q0 113 85.5 191t212.5 78q41 0 78 -10t71 -29
q60 -35 98.5 -92.5t38.5 -110.5q0 -48 -20 -68t-71 -20zM131 720l141 57q27 10 38 10q10 0 18.5 -3t18.5 -7l137 -56q27 -11 40 -38q6 -15 6 -30q0 -46 -43 -65q-18 -7 -30 -7q-14 0 -26 6l-122 49l-124 -51q-13 -5 -26 -5q-21 0 -39.5 12.5t-25 28.5t-6.5 34q0 47 43 65z
M374 325l-1 10q-8 48 -56 48q-8 0 -12 -1q-35 -8 -48 -48l-2 -9h119z" />
    <glyph glyph-name="edieresis" unicode="&#xeb;" horiz-adv-x="621" 
d="M513 217h-260l18 -19q35 -27 115 -27q26 0 77 14q36 9 50 9q38 0 62.5 -22.5t24.5 -56.5q0 -13 -2 -19q-8 -28 -29.5 -46.5t-70.5 -35.5q-20 -6 -41 -10.5t-39.5 -7t-37.5 -3.5t-34 -1q-149 0 -237.5 81.5t-88.5 204.5q0 113 85.5 191t212.5 78q41 0 78 -10t71 -29
q60 -35 98.5 -92.5t38.5 -110.5q0 -48 -20 -68t-71 -20zM110 678q0 42 27.5 69.5t67.5 27.5q41 0 68 -28.5t27 -66.5q0 -40 -27.5 -67.5t-67.5 -27.5q-38 0 -67 27q-28 30 -28 66zM320 679q0 41 27.5 68.5t67.5 27.5q41 0 68.5 -28t27.5 -68t-28 -67t-68 -27q-38 0 -67 27
q-28 30 -28 67zM374 325l-1 10q-8 48 -56 48q-8 0 -12 -1q-35 -8 -48 -48l-2 -9h119z" />
    <glyph glyph-name="iacute" unicode="&#xed;" horiz-adv-x="275" 
d="M26 102v334q0 47 32 79t80 32q47 0 79 -33t32 -79v-332q0 -47 -32.5 -79.5t-79.5 -32.5q-46 0 -78.5 32.5t-32.5 78.5zM21 721l182 72q15 5 26 5q21 0 39.5 -12.5t25.5 -29t7 -30.5q0 -21 -12.5 -39.5t-31.5 -26.5l-182 -74q-3 -2 -11 -3.5t-16 -1.5q-23 0 -41.5 12
t-26.5 34q-2 4 -3.5 11.5t-1.5 15.5q0 22 12 40.5t34 26.5z" />
    <glyph glyph-name="igrave" unicode="&#xec;" horiz-adv-x="275" 
d="M26 102v334q0 47 32 79t80 32q47 0 79 -33t32 -79v-332q0 -47 -32.5 -79.5t-79.5 -32.5q-46 0 -78.5 32.5t-32.5 78.5zM73 794l182 -74q20 -8 32 -26t12 -39q0 -14 -6 -28q-17 -44 -66 -44q-16 0 -26 5l-182 71q-21 8 -33.5 26.5t-12.5 41.5q0 16 5 27q18 45 69 45
q15 0 26 -5z" />
    <glyph glyph-name="icircumflex" unicode="&#xee;" horiz-adv-x="275" 
d="M26 102v334q0 47 32 79t80 32q47 0 79 -33t32 -79v-332q0 -47 -32.5 -79.5t-79.5 -32.5q-46 0 -78.5 32.5t-32.5 78.5zM-42 720l141 57q27 10 38 10q10 0 18.5 -3t18.5 -7l137 -56q27 -11 40 -38q6 -15 6 -30q0 -46 -43 -65q-18 -7 -30 -7q-14 0 -26 6l-122 49l-124 -51
q-13 -5 -26 -5q-21 0 -39.5 12.5t-25 28.5t-6.5 34q0 47 43 65z" />
    <glyph glyph-name="idieresis" unicode="&#xef;" horiz-adv-x="275" 
d="M26 102v334q0 47 32 79t80 32q47 0 79 -33t32 -79v-332q0 -47 -32.5 -79.5t-79.5 -32.5q-46 0 -78.5 32.5t-32.5 78.5zM-63 678q0 42 27.5 69.5t67.5 27.5q41 0 68 -28.5t27 -66.5q0 -40 -27.5 -67.5t-67.5 -27.5q-38 0 -67 27q-28 30 -28 66zM147 679q0 41 27.5 68.5
t67.5 27.5q41 0 68.5 -28t27.5 -68t-28 -67t-68 -27q-38 0 -67 27q-28 30 -28 67z" />
    <glyph glyph-name="ntilde" unicode="&#xf1;" horiz-adv-x="616" 
d="M29 103v333q0 48 32.5 79.5t77.5 31.5l88 -55v4l14 10q66 42 137 42q13 0 21 -1t26 -4q74 -15 118 -66.5t44 -117.5v-256q0 -46 -32 -79t-79 -33t-80 32t-33 79v208q0 24 -17 39q-16 17 -39 17t-39.5 -16.5t-16.5 -39.5v-207q0 -46 -32 -78.5t-79 -32.5t-79 33t-32 78z
M169 736h271q28 0 48 -19t20 -49q0 -29 -20 -49t-49 -20h-271q-25 0 -43.5 20.5t-18.5 49.5q0 28 18.5 47.5t44.5 19.5z" />
    <glyph glyph-name="oacute" unicode="&#xf3;" horiz-adv-x="632" 
d="M20 267q0 118 84.5 200.5t211.5 82.5q117 0 199 -71q48 -41 72.5 -95.5t24.5 -113.5q0 -74 -37 -138.5t-106.5 -103.5t-152.5 -39q-125 0 -210.5 80.5t-85.5 197.5zM200 721l182 72q15 5 26 5q21 0 39.5 -12.5t25.5 -29t7 -30.5q0 -21 -12.5 -39.5t-31.5 -26.5l-182 -74
q-3 -2 -11 -3.5t-16 -1.5q-23 0 -41.5 12t-26.5 34q-2 4 -3.5 11.5t-1.5 15.5q0 22 12 40.5t34 26.5zM331 177q52 11 61 71q2 14 2 21q0 28 -13 49q-24 39 -65 39t-65 -39q-13 -21 -13 -50q0 -40 23 -66.5t55 -26.5q5 0 15 2z" />
    <glyph glyph-name="ograve" unicode="&#xf2;" horiz-adv-x="632" 
d="M20 267q0 118 84.5 200.5t211.5 82.5q117 0 199 -71q48 -41 72.5 -95.5t24.5 -113.5q0 -74 -37 -138.5t-106.5 -103.5t-152.5 -39q-125 0 -210.5 80.5t-85.5 197.5zM252 794l182 -74q20 -8 32 -26t12 -39q0 -14 -6 -28q-17 -44 -66 -44q-16 0 -26 5l-182 71
q-21 8 -33.5 26.5t-12.5 41.5q0 16 5 27q18 45 69 45q15 0 26 -5zM331 177q52 11 61 71q2 14 2 21q0 28 -13 49q-24 39 -65 39t-65 -39q-13 -21 -13 -50q0 -40 23 -66.5t55 -26.5q5 0 15 2z" />
    <glyph glyph-name="ocircumflex" unicode="&#xf4;" horiz-adv-x="632" 
d="M20 267q0 118 84.5 200.5t211.5 82.5q117 0 199 -71q48 -41 72.5 -95.5t24.5 -113.5q0 -74 -37 -138.5t-106.5 -103.5t-152.5 -39q-125 0 -210.5 80.5t-85.5 197.5zM137 720l141 57q27 10 38 10q10 0 18.5 -3t18.5 -7l137 -56q27 -11 40 -38q6 -15 6 -30q0 -46 -43 -65
q-18 -7 -30 -7q-14 0 -26 6l-122 49l-124 -51q-13 -5 -26 -5q-21 0 -39.5 12.5t-25 28.5t-6.5 34q0 47 43 65zM331 177q52 11 61 71q2 14 2 21q0 28 -13 49q-24 39 -65 39t-65 -39q-13 -21 -13 -50q0 -40 23 -66.5t55 -26.5q5 0 15 2z" />
    <glyph glyph-name="odieresis" unicode="&#xf6;" horiz-adv-x="632" 
d="M20 268q0 118 85 200t211 82q117 0 199 -71q48 -41 72.5 -95.5t24.5 -113.5q0 -74 -37 -138.5t-106.5 -103.5t-152.5 -39q-126 0 -211 81t-85 198zM117 662q0 42 28 70t68 28q41 0 68 -29t27 -67q0 -39 -28 -67t-67 -28q-38 0 -67 28t-29 65zM324 663q0 39 28 68t68 29
t68 -28.5t28 -67.5t-28 -67t-68 -28q-38 0 -67 28t-29 66zM331 177q51 11 61 69q2 14 2 22q0 27 -13 50q-24 39 -65 39q-4 0 -16 -2q-30 -6 -49 -37q-13 -20 -13 -52q0 -40 22.5 -65.5t55.5 -25.5q5 0 15 2z" />
    <glyph glyph-name="otilde" unicode="&#xf5;" horiz-adv-x="632" 
d="M20 267q0 118 84.5 200.5t211.5 82.5q117 0 199 -71q48 -41 72.5 -95.5t24.5 -113.5q0 -74 -37 -138.5t-106.5 -103.5t-152.5 -39q-125 0 -210.5 80.5t-85.5 197.5zM177 736h271q28 0 48 -19t20 -49q0 -29 -20 -49t-49 -20h-271q-25 0 -43.5 20.5t-18.5 49.5
q0 28 18.5 47.5t44.5 19.5zM331 177q52 11 61 71q2 14 2 21q0 28 -13 49q-24 39 -65 39t-65 -39q-13 -21 -13 -50q0 -40 23 -66.5t55 -26.5q5 0 15 2z" />
    <glyph glyph-name="uacute" unicode="&#xfa;" horiz-adv-x="613" 
d="M29 243v193q0 46 32.5 78.5t79.5 32.5q46 0 78.5 -33.5t32.5 -79.5v-190q0 -28 12.5 -42t31.5 -18q32 -5 51 18q13 13 13 42v190q0 47 33 80t79 33q47 0 79.5 -32.5t32.5 -78.5v-193q0 -116 -54.5 -176.5t-171.5 -74.5q-26 -3 -51 -3q-26 0 -52 3q-117 14 -171.5 74.5
t-54.5 176.5zM190 721l182 72q15 5 26 5q21 0 39.5 -12.5t25.5 -29t7 -30.5q0 -21 -12.5 -39.5t-31.5 -26.5l-182 -74q-3 -2 -11 -3.5t-16 -1.5q-23 0 -41.5 12t-26.5 34q-2 4 -3.5 11.5t-1.5 15.5q0 22 12 40.5t34 26.5z" />
    <glyph glyph-name="ugrave" unicode="&#xf9;" horiz-adv-x="613" 
d="M29 243v193q0 46 32.5 78.5t79.5 32.5q46 0 78.5 -33.5t32.5 -79.5v-190q0 -28 12.5 -42t31.5 -18q32 -5 51 18q13 13 13 42v190q0 47 33 80t79 33q47 0 79.5 -32.5t32.5 -78.5v-193q0 -116 -54.5 -176.5t-171.5 -74.5q-26 -3 -51 -3q-26 0 -52 3q-117 14 -171.5 74.5
t-54.5 176.5zM242 794l182 -74q20 -8 32 -26t12 -39q0 -14 -6 -28q-17 -44 -66 -44q-16 0 -26 5l-182 71q-21 8 -33.5 26.5t-12.5 41.5q0 16 5 27q18 45 69 45q15 0 26 -5z" />
    <glyph glyph-name="ucircumflex" unicode="&#xfb;" horiz-adv-x="613" 
d="M29 243v193q0 46 32.5 78.5t79.5 32.5q46 0 78.5 -33.5t32.5 -79.5v-190q0 -28 12.5 -42t31.5 -18q32 -5 51 18q13 13 13 42v190q0 47 33 80t79 33q47 0 79.5 -32.5t32.5 -78.5v-193q0 -116 -54.5 -176.5t-171.5 -74.5q-26 -3 -51 -3q-26 0 -52 3q-117 14 -171.5 74.5
t-54.5 176.5zM127 720l141 57q27 10 38 10q10 0 18.5 -3t18.5 -7l137 -56q27 -11 40 -38q6 -15 6 -30q0 -46 -43 -65q-18 -7 -30 -7q-14 0 -26 6l-122 49l-124 -51q-13 -5 -26 -5q-21 0 -39.5 12.5t-25 28.5t-6.5 34q0 47 43 65z" />
    <glyph glyph-name="udieresis" unicode="&#xfc;" horiz-adv-x="613" 
d="M29 243v193q0 46 32.5 78.5t79.5 32.5q46 0 78.5 -33.5t32.5 -79.5v-190q0 -28 12.5 -42t31.5 -18q32 -5 51 18q13 13 13 42v190q0 47 33 80t79 33q47 0 79.5 -32.5t32.5 -78.5v-193q0 -116 -54.5 -176.5t-171.5 -74.5q-26 -3 -51 -3q-26 0 -52 3q-117 14 -171.5 74.5
t-54.5 176.5zM106 659q0 41 28 69t68 28q41 0 68 -28t27 -67q0 -41 -28 -68t-68 -27q-39 0 -67 27t-28 66zM316 659q0 40 27.5 68.5t67.5 28.5t68 -28t28 -67q0 -40 -28 -67.5t-66 -27.5q-39 0 -68 27t-29 66z" />
    <glyph glyph-name="cent" unicode="&#xa2;" horiz-adv-x="549" 
d="M293 542v71q0 16 18 16t18 -17v-70l42 -2q80 -9 122 -39.5t42 -74.5q0 -45 -26 -73t-69 -28q-6 0 -20 2l-30 7l-12 3l-22 4l-15 3l-11 2v-156l28 3l38 8l18 3q7 1 15.5 1.5t12.5 0.5q32 0 54 -16q41 -29 41 -77q0 -21 -7 -39q-13 -35 -49 -56q-43 -25 -111 -25h-39v-93
q0 -18 -19 -18q-17 0 -17 17v95q-10 0 -20.5 1.5t-16.5 2.5q-116 21 -182 109q-56 76 -56 162q0 95 68 175q65 76 171 94zM287 339l-7 -3q-22 -11 -31.5 -29.5t-9.5 -44.5q0 -23 35 -55l20 -12v147z" />
    <glyph glyph-name="sterling" unicode="&#xa3;" horiz-adv-x="718" 
d="M114 457h13l-2 8l-1 7q-2 16 -2 30v12q0 96 72 155q77 63 209 63h23t54 -5.5t82 -21.5q70 -27 108 -68q34 -37 34 -76q0 -21 -7 -36q-28 -65 -85 -65q-22 0 -51 13l-4 3l-32 18l-16 8l-26 15l-21 7l-34 7q-35 0 -53.5 -12.5t-16.5 -30.5l2 -11l2 -10l1 -3l1 -4l3 -5h74
q40 0 69 -29t29 -70t-28 -70t-70 -29h-47l-2 -9l-1 -7l-1 -4l-3 -12l-1 -4l-1 -7l-1 -8l-1 -8h221q41 0 70 -29t29 -71q0 -41 -29 -69.5t-71 -28.5h-398h-34q-22 3 -44 19q-29 22 -37 59q-2 16 -2 22q0 32 28 66l4 5l9 12q21 27 30 63l2 12h-45q-42 0 -72 29t-30 70t30 70.5
t70 29.5z" />
    <glyph glyph-name="section" unicode="&#xa7;" horiz-adv-x="638" 
d="M98 435l-18 27q-23 43 -23 84q0 81 82 147q27 21 63 32t87 11h22t43 -3.5t68 -15.5q84 -26 126 -62q38 -32 43 -73q1 -5 1 -15q0 -41 -26 -67t-67 -26q-7 0 -24 3t-31 11l-30 21l-12 9l-15 10q-23 17 -34 23t-24 8q-37 5 -37 -40q0 -20 38 -38l30 -12l122 -46
q37 -14 59.5 -28t38.5 -32q41 -47 41 -103q0 -39 -19 -87q-24 -61 -83 -100q39 -45 39 -104q0 -41 -19.5 -79t-56.5 -63q-65 -44 -174 -44q-16 0 -33.5 1t-34.5 4q-41 6 -81 25q-71 35 -104 72t-33 74q0 32 26 61q12 14 34 24t43 10q37 0 78 -34l6 -6l22 -20q22 -20 52 -30
l12 -3q31 -5 31 23q0 4 -2 14.5t-8.5 16.5t-26.5 14l-26 11l-105 39q-71 26 -102 62t-37 100q-1 6 -1 11v12q0 105 80 171zM253 310l-2 -2q-10 -10 -10 -26q0 -7 2 -15.5t10 -14.5t32 -15l89 -32l1 3l5 4l2 2q5 6 5 19q0 6 -1 10q-5 23 -40 36l-91 33z" />
    <glyph glyph-name="bullet" unicode="&#x2022;" horiz-adv-x="346" 
d="M29 360q0 60 42 102t102 42t102 -42t42 -102t-42 -102t-102 -42t-102 42t-42 102z" />
    <glyph glyph-name="paragraph" unicode="&#xb6;" 
d="M247 720h319q17 0 29 -12t12 -27q0 -16 -13 -28t-28 -12h-320q-58 0 -98.5 -41.5t-40.5 -100.5q0 -58 40.5 -98.5t98.5 -40.5h61v193q0 18 12.5 31t31.5 13q18 0 30.5 -13.5t12.5 -29.5l-2 -527q0 -17 -12.5 -28.5t-30.5 -11.5t-30 12t-12 28v254h-61q-90 0 -153.5 63.5
t-63.5 155.5q0 91 63.5 155.5t154.5 64.5zM449 27l1 526q0 20 12 31.5t31 11.5t30.5 -13t11.5 -30v-526q0 -16 -12.5 -28.5t-29.5 -12.5q-18 0 -31 12t-13 29z" />
    <glyph glyph-name="germandbls" unicode="&#xdf;" horiz-adv-x="637" 
d="M29 495q0 123 79.5 201.5t204.5 78.5q37 0 69 -7.5t62 -22.5q56 -28 86 -77.5t30 -104.5q0 -69 -46 -122l-11 -12l18 -9q52 -29 78 -83q19 -41 19 -83q0 -65 -45 -136q-20 -31 -42 -53t-51 -41q-24 -16 -51.5 -24t-51.5 -8q-43 0 -74 22t-39 57q-4 16 -4 33q0 59 54 86
l6 3l28 11l9 5q49 27 44 63l-1 5l-1 4q-5 13 -14.5 20.5t-31.5 14.5l-10 2l-19 5q-15 4 -33 17q-33 25 -33 73q0 12 1 19q0 17 9.5 33t26.5 28l15 9l9 4l11 4q15 6 23 14q8 11 8 23q0 22 -25 33q-6 3 -8 3q-4 1 -11 1q-66 8 -66 -79v-403q0 -48 -32.5 -79.5t-78.5 -31.5
q-44 0 -77.5 32.5t-33.5 78.5v393z" />
    <glyph glyph-name="acute" unicode="&#xb4;" horiz-adv-x="320" 
d="M44 721l182 72q15 5 26 5q21 0 39.5 -12.5t25.5 -29t7 -30.5q0 -21 -12.5 -39.5t-31.5 -26.5l-182 -74q-3 -2 -11 -3.5t-16 -1.5q-23 0 -41.5 12t-26.5 34q-2 4 -3.5 11.5t-1.5 15.5q0 22 12 40.5t34 26.5z" />
    <glyph glyph-name="dieresis" unicode="&#xa8;" horiz-adv-x="342" 
d="M-29 678q0 42 27.5 69.5t67.5 27.5q41 0 68 -28.5t27 -66.5q0 -40 -27.5 -67.5t-67.5 -27.5q-38 0 -67 27q-28 30 -28 66zM181 679q0 41 27.5 68.5t67.5 27.5q41 0 68.5 -28t27.5 -68t-28 -67t-68 -27q-38 0 -67 27q-28 30 -28 67z" />
    <glyph glyph-name="AE" unicode="&#xc6;" horiz-adv-x="880" 
d="M-3 161l186 485q16 40 40 57t66 17h474q42 0 71 -29t29 -72q0 -41 -29 -70t-71 -29h-155v-61h139q41 0 71 -29t30 -70t-29 -71t-70 -30h-140v-59h159q42 0 71 -29t29 -71q0 -41 -28.5 -70.5t-70.5 -29.5h-271q-52 0 -86 37l-30 64l-2 2l-157 8l-18 -53q-10 -27 -37.5 -47
t-61.5 -20q-32 0 -57 11q-64 30 -64 101q0 28 12 58zM377 303v237l-84 -237h84z" />
    <glyph glyph-name="Oslash" unicode="&#xd8;" horiz-adv-x="805" 
d="M655 640l87 84q9 9 22 9q11 0 19.5 -8t8.5 -20t-9 -21l-86 -83q17 -21 30 -45q58 -100 58 -200q0 -106 -66 -202q-89 -128 -245 -158q-18 -3 -36 -5t-36 -2q-139 0 -243 89l-99 -97q-7 -7 -19 -7t-20.5 8.5t-8.5 20.5t9 20l98 96q-10 11 -21 24.5t-17 21.5
q-61 88 -61 194q0 110 63 203q67 98 181 143q69 26 141 26q104 0 195 -53q30 -17 55 -38zM484 507q-40 22 -82 22q-57 0 -98.5 -36.5t-52.5 -101.5q-2 -8 -2 -17.5v-14.5q0 -49 23 -90l234 224zM433 195q60 13 99 76q25 41 25 89q0 14 -2.5 30.5t-5 25.5t-11.5 28l-227 -217
q35 -35 90 -35q15 0 32 3z" />
    <glyph glyph-name="yen" unicode="&#xa5;" horiz-adv-x="705" 
d="M239 671l113 -138l114 138q47 57 102 57q34 0 67 -25q19 -14 32.5 -39.5t13.5 -54.5q0 -39 -22 -64l-110 -115h88q14 0 24 -10.5t10 -27.5t-10 -28t-24 -11l-155 -1l-14 -14l3 -26l167 1q14 0 24 -12t10 -32q0 -13 -10.5 -22.5t-23.5 -9.5h-168l-2 -129q0 -24 -9 -45
q-13 -34 -42 -53.5t-65 -19.5q-21 0 -44 9q-25 12 -38 27q-33 33 -33 82l2 128h-165q-16 0 -28 10t-12 29q0 14 12 26t29 12h164l-2 25l-12 14h-150q-17 0 -28.5 11.5t-11.5 27.5q0 15 11.5 26.5t28.5 11.5l86 1l-115 115q-23 25 -23 63q0 30 16 59q13 22 31 36q33 25 68 25
q54 0 101 -57z" />
    <glyph glyph-name="ordfeminine" unicode="&#xaa;" horiz-adv-x="416" 
d="M84 319h259q19 0 31.5 -13.5t12.5 -34.5q0 -20 -13 -34t-31 -14h-259q-22 0 -38.5 14.5t-16.5 33.5t16 33.5t39 14.5zM282 690v4q0 15 13.5 26t32.5 9q20 0 33.5 -14.5t13.5 -33.5v-274q0 -18 -13.5 -32.5t-33.5 -14.5q-21 0 -34 11t-13 27v6q-15 -21 -39 -32.5
t-53 -11.5q-28 0 -58 13.5t-53 39.5q-35 40 -44 94q-3 20 -3 39q0 59 28 106q23 38 58 58.5t73 20.5q56 0 92 -41zM127 526q5 -37 26 -58t51 -21q32 0 53.5 26.5t21.5 71.5q0 22 -4.5 38.5t-14.5 30.5q-21 28 -56 28t-57 -28q-15 -18 -20 -50l-2 -20z" />
    <glyph glyph-name="ordmasculine" unicode="&#xba;" horiz-adv-x="403" 
d="M84 319h246q18 0 31 -13.5t13 -34.5q0 -20 -13 -34t-31 -14h-246q-22 0 -38.5 14.5t-16.5 33.5t16 33.5t39 14.5zM29 546q0 57 24 97.5t63.5 64t85.5 23.5q71 0 121.5 -52.5t50.5 -132.5q0 -75 -44 -127q-24 -29 -58 -44.5t-70 -15.5q-45 0 -84.5 22.5t-64 66t-24.5 98.5
zM126 529q5 -42 24.5 -63.5t50.5 -21.5q30 0 50.5 21.5t25.5 63.5v33q-12 82 -75 82q-5 0 -22.5 -3.5t-33.5 -24.5t-19 -43.5t-2 -28.5z" />
    <glyph glyph-name="ae" unicode="&#xe6;" horiz-adv-x="982" 
d="M405 500q9 18 18 27q28 28 73 28q29 0 50 -15q7 -5 15 -15q11 6 20 9q30 11 57.5 15t48.5 4q52 0 98.5 -18t85.5 -52q57 -48 81 -118q13 -36 13 -66q0 -78 -85 -78h-267l11 -12q19 -19 44 -27t63 -8l56 7l45 8q11 2 21.5 2h16.5q24 0 41 -6q49 -22 49 -76q0 -30 -25 -56
t-57 -39q-53 -22 -140 -22q-99 0 -155 18q-10 3 -22 10l-24 -21q-4 -2 -16 -6t-30 -4q-13 0 -32 6t-38 27q-6 7 -15 21q-3 -5 -5 -7q-8 -11 -13 -15q-39 -31 -106 -31q-12 0 -25.5 1t-26.5 4q-81 16 -136.5 75.5t-69.5 149.5q-2 10 -3 23t-1 26q0 12 1.5 26t5.5 36
q12 59 42 104t75 74q31 20 64.5 30.5t67.5 10.5q24 0 49.5 -5.5t55.5 -25.5q10 -6 24 -19zM242 253q7 -31 26 -48t46 -17q9 0 13 1q29 5 47 28.5t18 58.5q0 11 -2 26t-19 34q-21 24 -53 24q-35 0 -58 -29q-9 -12 -14 -23t-5 -24q-1 -12 -1 -16q0 -5 2 -15zM735 332
q-2 16 -8 26q-13 25 -37 30q-5 1 -15 1q-16 0 -28 -7t-23 -25q-7 -10 -9 -25h120z" />
    <glyph glyph-name="oslash" unicode="&#xf8;" horiz-adv-x="634" 
d="M506 484l73 71q8 8 19 6q9 0 14.5 -7.5t3.5 -16.5q-1 -7 -8 -14l-70 -68q9 -11 14 -16.5t11 -16.5q47 -71 47 -154q0 -88 -52 -161t-143 -102q-10 -4 -22 -7t-35 -6.5t-47 -3.5q-107 0 -187 65l-71 -69q-6 -6 -15 -6q-10 0 -16 6.5t-6 15.5q0 6 5 13l72 70
q-9 11 -14 16.5t-11 16.5q-24 35 -36 76.5t-12 80.5q0 87 52 159t142 103q24 9 43.5 12t41 4t23.5 1q108 0 184 -68zM330 355q-12 2 -17 2q-39 0 -62 -38l-8 -14q-7 -21 -6 -37l4 -21l3 -16l117 110q-7 5 -14.5 8.5t-16.5 5.5zM275 187q20 -12 40 -12q4 0 14 2q34 8 48 32.5
t14 71.5l-2 10l-1 7l-2 7l-119 -112z" />
    <glyph glyph-name="questiondown" unicode="&#xbf;" horiz-adv-x="578" 
d="M153 617q0 50 36 86t86 36t86.5 -36.5t36.5 -86.5t-36 -86t-87 -36q-50 0 -86 36t-36 87zM167 349l-1 15q0 46 31 79t79 33l111 -110v7l15 -5q66 -22 101.5 -66.5t35.5 -104.5q0 -14 -2.5 -28.5t-4.5 -22.5q-17 -65 -68.5 -105t-146.5 -55q-23 -4 -52 -4q-64 0 -123 25
q-76 34 -105 77q-21 31 -21 66q0 28 13.5 50.5t34.5 31t35 8.5q25 0 60 -19l12 -6l9 -6l19 -13l26 -13q18 -7 33 -9q41 0 51 14q7 10 7 19q0 16 -18 22l-9 2l-18 4q-104 18 -104 114z" />
    <glyph glyph-name="exclamdown" unicode="&#xa1;" horiz-adv-x="320" 
d="M38 614q0 50 35.5 85.5t86.5 35.5q52 0 87 -36t35 -86q0 -51 -36 -86.5t-87 -35.5t-86 36t-35 87zM48 92v267q0 46 32.5 78.5t79.5 32.5q46 0 78 -32t32 -78v-267q0 -45 -32.5 -78.5t-78.5 -33.5t-78.5 32.5t-32.5 78.5z" />
    <glyph glyph-name="florin" unicode="&#x192;" horiz-adv-x="453" 
d="M67 -23l36 370h-4q-19 0 -36 8.5t-31 24.5q-21 24 -21 56q0 40 31 67q35 30 78 36l5 1l6 51q10 88 59 139q45 47 109 47l48 -2q25 0 57.5 -9.5t51.5 -33.5t19 -56t-23 -61q-14 -18 -27.5 -25t-41.5 -10h-4l-10 -2q-14 -3 -18 -16l-2 -4l-3 -19h5q37 4 63 -20.5t26 -61.5
q0 -11 -1 -16q-7 -37 -35.5 -62.5t-72.5 -31.5h-5l-43 -408q-9 -87 -57 -137.5t-113 -50.5h-44q-52 0 -92 27.5t-40 74.5q0 46 42 79q20 15 49 18l11 1q10 2 16 7l4 4q5 6 7 12q0 1 1 3z" />
    <glyph glyph-name="guillemotleft" unicode="&#xab;" horiz-adv-x="605" 
d="M52 353l103 133q33 42 77 42q31 0 58.5 -24.5t27.5 -63.5q0 -38 -31 -68l-84 -85l83 -87q24 -24 29 -53q1 -5 1 -15q0 -36 -25.5 -61.5t-61.5 -25.5q-8 0 -12 1q-37 5 -61 35l-108 141q-24 32 -24 63q0 33 28 68zM316 353l103 133q33 42 77 42q31 0 58.5 -25t27.5 -62
q0 -38 -31 -69l-84 -85l83 -87q25 -26 29 -53q1 -5 1 -15q0 -36 -25.5 -61.5t-62.5 -25.5q-8 0 -12 1q-36 5 -60 35l-108 141q-24 32 -24 63q0 33 28 68z" />
    <glyph glyph-name="guillemotright" unicode="&#xbb;" horiz-adv-x="605" 
d="M54 180l84 85l-83 87q-25 26 -27.5 42.5t-2.5 26.5q0 36 25 61t63 25q8 0 28 -2.5t44 -33.5l108 -141q24 -32 24 -63q0 -33 -28 -68l-103 -133q-16 -21 -35.5 -31t-41.5 -10q-32 0 -57 22q-29 27 -29 64q0 38 31 69zM318 180l84 85l-83 87q-25 26 -27.5 42.5t-2.5 26.5
q0 36 25 61t63 25q8 0 12 -1q37 -5 60 -35l108 -141q24 -32 24 -63q0 -33 -28 -68l-103 -133q-33 -42 -77 -42q-31 0 -57 23q-29 27 -29 64q0 38 31 69z" />
    <glyph glyph-name="ellipsis" unicode="&#x2026;" horiz-adv-x="864" 
d="M36 94q0 45 31.5 76.5t76.5 31.5q44 0 76 -32t32 -76q0 -45 -31.5 -76.5t-76.5 -31.5t-76.5 31.5t-31.5 76.5zM324 94q0 45 31.5 76.5t76.5 31.5q44 0 76 -32t32 -76q0 -45 -31.5 -76.5t-76.5 -31.5t-76.5 31.5t-31.5 76.5zM612 94q0 45 31.5 76.5t76.5 31.5q44 0 76 -32
t32 -76q0 -45 -31.5 -76.5t-76.5 -31.5t-76.5 31.5t-31.5 76.5z" />
    <glyph glyph-name="nonbreakingspace" unicode="&#xa0;" horiz-adv-x="500" 
 />
    <glyph glyph-name="Agrave" unicode="&#xc0;" horiz-adv-x="686" 
d="M-3 160l172 440q24 60 69.5 93t104.5 33t104.5 -32.5t69.5 -93.5l172 -440q13 -36 13 -61q0 -34 -18 -60t-52 -40q-23 -10 -48 -10q-36 0 -65 21.5t-43 60.5l-11 33h-243l-12 -33q-14 -38 -43.5 -60t-65.5 -22q-24 0 -47 10q-70 30 -70 100q0 25 13 61zM279 973l182 -74
q20 -8 32 -26t12 -39q0 -14 -6 -28q-17 -44 -66 -44q-16 0 -26 5l-182 71q-21 8 -33.5 26.5t-12.5 41.5q0 16 5 27q18 45 69 45q15 0 26 -5zM397 303l-54 192l-54 -192h108z" />
    <glyph glyph-name="Atilde" unicode="&#xc3;" horiz-adv-x="686" 
d="M-3 160l172 440q24 60 69.5 93t104.5 33t104.5 -32.5t69.5 -93.5l172 -440q13 -36 13 -61q0 -34 -18 -60t-52 -40q-23 -10 -48 -10q-36 0 -65 21.5t-43 60.5l-11 33h-243l-12 -33q-14 -38 -43.5 -60t-65.5 -22q-24 0 -47 10q-70 30 -70 100q0 25 13 61zM204 915h271
q28 0 48 -19t20 -49q0 -29 -20 -49t-49 -20h-271q-25 0 -43.5 20.5t-18.5 49.5q0 28 18.5 47.5t44.5 19.5zM397 303l-54 192l-54 -192h108z" />
    <glyph glyph-name="Otilde" unicode="&#xd5;" horiz-adv-x="806" 
d="M20 360q0 110 67 206q53 76 137 120t179 44q96 0 179 -43t137 -121q67 -95 67 -206t-67 -206q-53 -78 -136.5 -121t-179.5 -43t-179 43t-137 121q-67 96 -67 206zM264 915h271q28 0 48 -19t20 -49q0 -29 -20 -49t-49 -20h-271q-25 0 -43.5 20.5t-18.5 49.5
q0 28 18.5 47.5t44.5 19.5zM432 194q55 11 90.5 56.5t35.5 108.5q0 15 -3 32q-10 62 -52.5 100t-99.5 38q-65 0 -109.5 -47.5t-44.5 -121.5t44.5 -121.5t108.5 -47.5q15 0 30 3z" />
    <glyph glyph-name="OE" unicode="&#x152;" horiz-adv-x="1084" 
d="M601 673q0 47 67 47h281q41 0 70 -30t29 -74q0 -41 -30 -70t-71 -29h-158v-61h138q41 0 70 -29t29 -72q0 -41 -29 -70t-70 -29h-137v-58h174q41 0 70.5 -29.5t29.5 -71.5t-30 -71t-71 -29l-263 3q-35 0 -52 3.5t-27 12.5l-20 27q-24 -21 -56 -33t-96 -22q-23 -4 -51 -4
q-144 0 -257 104q-59 54 -90 123t-31 147q0 40 9 82q4 19 10.5 37.5t15.5 39.5q40 86 115 142t171 71q36 6 68 6q74 0 153 -41l26 -15zM381 190q9 -2 26 -2t25 2q48 9 79 41.5t42 88.5q5 25 5 44q0 18 -3 35q-20 115 -121 137q-16 4 -36 4q-64 0 -106 -49t-42 -131
q0 -70 35 -114.5t96 -55.5z" />
    <glyph glyph-name="oe" unicode="&#x153;" horiz-adv-x="976" 
d="M492 499l9 5l8 5q31 18 69.5 28.5t79.5 10.5q114 0 191 -58q62 -47 91 -117q19 -48 19 -83q0 -77 -83 -77h-271q12 -21 44 -33.5t83 -12.5q16 0 36.5 4t37.5 8q40 10 64 10q21 0 40 -11q45 -26 45 -70q0 -19 -7 -35t-22.5 -29t-44 -25t-65.5 -20t-84 -8q-90 0 -142 10
t-100 39l-10 -7q-71 -45 -164 -45q-164 0 -247 125q-48 73 -48 157q0 86 49 156.5t138 103.5q51 19 110 19q40 0 78 -9t74 -29l11 -6zM327 182q30 5 49 33q15 22 15 51q0 51 -33 75q-18 14 -43 14q-50 0 -70 -52q-7 -19 -7 -35q0 -38 21.5 -62.5t53.5 -24.5q9 0 14 1z
M726 325l-1 9q-4 23 -19.5 36t-37.5 13q-9 0 -20 -3q-23 -8 -35 -30q-5 -11 -7 -25h120z" />
    <glyph glyph-name="endash" unicode="&#x2013;" horiz-adv-x="676" 
d="M142 448h392q31 0 53.5 -24.5t22.5 -64.5q0 -39 -22.5 -64.5t-53.5 -25.5h-392q-31 0 -54 25t-23 65q0 39 23 64t54 25z" />
    <glyph glyph-name="emdash" unicode="&#x2014;" horiz-adv-x="589" 
d="M31 252v204h526l1 -204h-527z" />
    <glyph glyph-name="quotedblleft" unicode="&#x201c;" horiz-adv-x="611" 
d="M10 483l87 198q13 29 39.5 46t58.5 17q24 0 49 -11.5t42 -38.5t17 -58q0 -13 -2 -23t-8 -22l-94 -195q-20 -41 -61 -56q-17 -7 -36 -7q-32 0 -58 18t-37 50q-6 18 -6 37q0 24 9 45zM289 483l87 198q13 29 39.5 46t58.5 17q24 0 49 -11.5t42 -38.5t17 -57q0 -22 -11 -46
l-93 -195q-20 -41 -61 -56q-17 -7 -36 -7q-32 0 -58 18t-37 50q-6 18 -6 37q0 24 9 45z" />
    <glyph glyph-name="quotedblright" unicode="&#x201d;" horiz-adv-x="611" 
d="M10 483l87 198q13 29 39.5 46t58.5 17q24 0 49 -11.5t42 -38.5t17 -58q0 -13 -2 -23t-8 -22l-94 -195q-20 -41 -61 -56q-17 -7 -36 -7q-32 0 -58 18t-37 50q-6 18 -6 37q0 24 9 45zM289 483l87 198q13 29 39.5 46t58.5 17q24 0 49 -11.5t42 -38.5t17 -57q0 -22 -11 -46
l-93 -195q-20 -41 -61 -56q-17 -7 -36 -7q-32 0 -58 18t-37 50q-6 18 -6 37q0 24 9 45z" />
    <glyph glyph-name="quoteleft" unicode="&#x2018;" horiz-adv-x="327" 
d="M4 483l87 198q13 29 39.5 46t58.5 17q24 0 49 -11.5t42 -38.5t17 -58q0 -13 -2 -23t-8 -22l-94 -195q-20 -41 -61 -56q-17 -7 -36 -7q-32 0 -58 18t-37 50q-6 18 -6 37q0 24 9 45z" />
    <glyph glyph-name="quoteright" unicode="&#x2019;" horiz-adv-x="327" 
d="M4 483l87 198q13 29 39.5 46t58.5 17q24 0 49 -11.5t42 -38.5t17 -58q0 -13 -2 -23t-8 -22l-94 -195q-20 -41 -61 -56q-17 -7 -36 -7q-32 0 -58 18t-37 50q-6 18 -6 37q0 24 9 45z" />
    <glyph glyph-name="ydieresis" unicode="&#xff;" horiz-adv-x="518" 
d="M209 460l56 -155l51 152q3 9 9 22t11 23q13 22 35 34t50 12q24 0 45.5 -9t39.5 -29q27 -29 27 -70q0 -27 -11 -50l-246 -560q-35 -80 -103 -80q-17 0 -35 6q-34 10 -54.5 36.5t-20.5 59.5q0 22 11 46l77 156l-153 344q-8 19 -8 39q0 31 17.5 58.5t45 40.5t50.5 13
q74 0 106 -89zM59 678q0 42 27.5 69.5t67.5 27.5q41 0 68 -28.5t27 -66.5q0 -40 -27.5 -67.5t-67.5 -27.5q-38 0 -67 27q-28 30 -28 66zM269 679q0 41 27.5 68.5t67.5 27.5q41 0 68.5 -28t27.5 -68t-28 -67t-68 -27q-38 0 -67 27q-28 30 -28 67z" />
    <glyph glyph-name="Ydieresis" unicode="&#x178;" horiz-adv-x="641" 
d="M207 671l113 -138l114 138q47 57 102 57q34 0 67 -25q19 -14 31 -36q16 -29 16 -60q0 -36 -23 -62l-191 -207v-230q0 -47 -33 -82.5t-82 -35.5q-48 0 -82 34.5t-34 83.5v230l-191 207q-23 25 -23 63q0 17 3 29.5t14 32t30 33.5q34 25 68 25q54 0 101 -57zM120 857
q0 42 27.5 69.5t67.5 27.5q41 0 68 -28.5t27 -66.5q0 -40 -27.5 -67.5t-67.5 -27.5q-38 0 -67 27q-28 30 -28 66zM330 858q0 41 27.5 68.5t67.5 27.5q41 0 68.5 -28t27.5 -68t-28 -67t-68 -27q-38 0 -67 27q-28 30 -28 67z" />
    <glyph glyph-name="guilsinglleft" unicode="&#x2039;" horiz-adv-x="341" 
d="M52 333l103 132q33 42 77 42q31 0 58.5 -24.5t27.5 -62.5t-31 -69l-84 -84l83 -87q24 -24 29 -54q1 -5 1 -15q0 -35 -25 -61t-62 -26q-8 0 -12 1q-38 6 -61 35l-108 142q-24 32 -24 63q0 33 28 68z" />
    <glyph glyph-name="guilsinglright" unicode="&#x203a;" horiz-adv-x="341" 
d="M54 180l84 85l-83 87q-25 26 -27.5 42.5t-2.5 26.5q0 36 25 61t63 25q8 0 28 -2.5t44 -33.5l108 -141q24 -32 24 -63q0 -33 -28 -68l-103 -133q-16 -21 -35.5 -31t-41.5 -10q-32 0 -57 22q-29 27 -29 64q0 38 31 69z" />
    <glyph glyph-name="periodcentered" unicode="&#xb7;" horiz-adv-x="307" 
d="M31 275q0 50 35.5 85.5t87.5 35.5q50 0 85.5 -35.5t35.5 -86.5t-35.5 -86t-85.5 -35q-51 0 -87 36t-36 86z" />
    <glyph glyph-name="periodcentered" unicode="&#x2219;" horiz-adv-x="307" 
d="M31 275q0 50 35.5 85.5t87.5 35.5q50 0 85.5 -35.5t35.5 -86.5t-35.5 -86t-85.5 -35q-51 0 -87 36t-36 86z" />
    <glyph glyph-name="quotesinglbase" unicode="&#x201a;" horiz-adv-x="302" 
d="M-21 -34l87 198q14 30 40.5 47t58.5 17q24 0 44 -10q29 -14 46 -41t17 -58q0 -13 -2 -23t-8 -22l-94 -195q-19 -39 -61 -55q-17 -7 -37 -7q-32 0 -57.5 18t-36.5 49q-6 18 -6 37q0 24 9 45z" />
    <glyph glyph-name="quotedblbase" unicode="&#x201e;" horiz-adv-x="580" 
d="M-21 -34l87 198q14 30 40.5 47t58.5 17q24 0 44 -10q29 -14 46 -41t17 -58q0 -13 -2 -23t-8 -22l-94 -195q-19 -39 -61 -55q-17 -7 -37 -7q-32 0 -57.5 18t-36.5 49q-6 18 -6 37q0 24 9 45zM258 -34l87 198q14 30 40.5 47t58.5 17q24 0 44 -10q29 -14 46 -41t17 -57
q0 -22 -11 -46l-93 -195q-19 -39 -61 -55q-17 -7 -37 -7q-32 0 -57.5 18t-36.5 49q-6 18 -6 37q0 24 9 45z" />
    <glyph glyph-name="Acircumflex" unicode="&#xc2;" horiz-adv-x="686" 
d="M-3 160l172 440q24 60 69.5 93t104.5 33t104.5 -32.5t69.5 -93.5l172 -440q13 -36 13 -61q0 -34 -18 -60t-52 -40q-23 -10 -48 -10q-36 0 -65 21.5t-43 60.5l-11 33h-243l-12 -33q-14 -38 -43.5 -60t-65.5 -22q-24 0 -47 10q-70 30 -70 100q0 25 13 61zM164 899l141 57
q27 10 38 10q10 0 18.5 -3t18.5 -7l137 -56q27 -11 40 -38q6 -15 6 -30q0 -46 -43 -65q-18 -7 -30 -7q-14 0 -26 6l-122 49l-124 -51q-13 -5 -26 -5q-21 0 -39.5 12.5t-25 28.5t-6.5 34q0 47 43 65zM397 303l-54 192l-54 -192h108z" />
    <glyph glyph-name="Ecircumflex" unicode="&#xca;" horiz-adv-x="531" 
d="M29 118v486q0 50 33 83t83 33h275q39 0 68 -29t29 -71q0 -41 -29 -71t-70 -30h-158v-61h130q44 0 77 -31q30 -27 30 -67t-31 -69q-34 -29 -75 -29h-131v-62h150q45 0 77 -29.5t32 -71.5q0 -40 -31.5 -69.5t-74.5 -29.5h-269q-33 0 -62 20t-44 54q-9 21 -9 44zM86 899
l141 57q27 10 38 10q10 0 18.5 -3t18.5 -7l137 -56q27 -11 40 -38q6 -15 6 -30q0 -46 -43 -65q-18 -7 -30 -7q-14 0 -26 6l-122 49l-124 -51q-13 -5 -26 -5q-21 0 -39.5 12.5t-25 28.5t-6.5 34q0 47 43 65z" />
    <glyph glyph-name="Aacute" unicode="&#xc1;" horiz-adv-x="686" 
d="M-3 160l172 440q24 60 69.5 93t104.5 33t104.5 -32.5t69.5 -93.5l172 -440q13 -36 13 -61q0 -34 -18 -60t-52 -40q-23 -10 -48 -10q-36 0 -65 21.5t-43 60.5l-11 33h-243l-12 -33q-14 -38 -43.5 -60t-65.5 -22q-24 0 -47 10q-70 30 -70 100q0 25 13 61zM227 900l182 72
q15 5 26 5q21 0 39.5 -12.5t25.5 -29t7 -30.5q0 -21 -12.5 -39.5t-31.5 -26.5l-182 -74q-3 -2 -11 -3.5t-16 -1.5q-23 0 -41.5 12t-26.5 34q-2 4 -3.5 11.5t-1.5 15.5q0 22 12 40.5t34 26.5zM397 303l-54 192l-54 -192h108z" />
    <glyph glyph-name="Edieresis" unicode="&#xcb;" horiz-adv-x="531" 
d="M29 118v486q0 50 33 83t83 33h275q39 0 68 -29t29 -71q0 -41 -29 -71t-70 -30h-158v-61h130q44 0 77 -31q30 -27 30 -67t-31 -69q-34 -29 -75 -29h-131v-62h150q45 0 77 -29.5t32 -71.5q0 -40 -31.5 -69.5t-74.5 -29.5h-269q-33 0 -62 20t-44 54q-9 21 -9 44zM65 857
q0 42 27.5 69.5t67.5 27.5q41 0 68 -28.5t27 -66.5q0 -40 -27.5 -67.5t-67.5 -27.5q-38 0 -67 27q-28 30 -28 66zM275 858q0 41 27.5 68.5t67.5 27.5q41 0 68.5 -28t27.5 -68t-28 -67t-68 -27q-38 0 -67 27q-28 30 -28 67z" />
    <glyph glyph-name="Egrave" unicode="&#xc8;" horiz-adv-x="531" 
d="M29 118v486q0 50 33 83t83 33h275q39 0 68 -29t29 -71q0 -41 -29 -71t-70 -30h-158v-61h130q44 0 77 -31q30 -27 30 -67t-31 -69q-34 -29 -75 -29h-131v-62h150q45 0 77 -29.5t32 -71.5q0 -40 -31.5 -69.5t-74.5 -29.5h-269q-33 0 -62 20t-44 54q-9 21 -9 44zM201 973
l182 -74q20 -8 32 -26t12 -39q0 -14 -6 -28q-17 -44 -66 -44q-16 0 -26 5l-182 71q-21 8 -33.5 26.5t-12.5 41.5q0 16 5 27q18 45 69 45q15 0 26 -5z" />
    <glyph glyph-name="Iacute" unicode="&#xcd;" horiz-adv-x="289" 
d="M29 108v504q0 47 34 81t82 34q47 0 81 -34t34 -82v-505q0 -48 -34.5 -81.5t-81.5 -33.5q-48 0 -81.5 34t-33.5 83zM28 900l182 72q15 5 26 5q21 0 39.5 -12.5t25.5 -29t7 -30.5q0 -21 -12.5 -39.5t-31.5 -26.5l-182 -74q-3 -2 -11 -3.5t-16 -1.5q-23 0 -41.5 12t-26.5 34
q-2 4 -3.5 11.5t-1.5 15.5q0 22 12 40.5t34 26.5z" />
    <glyph glyph-name="Icircumflex" unicode="&#xce;" horiz-adv-x="289" 
d="M29 108v504q0 47 34 81t82 34q47 0 81 -34t34 -82v-505q0 -48 -34.5 -81.5t-81.5 -33.5q-48 0 -81.5 34t-33.5 83zM-35 899l141 57q27 10 38 10q10 0 18.5 -3t18.5 -7l137 -56q27 -11 40 -38q6 -15 6 -30q0 -46 -43 -65q-18 -7 -30 -7q-14 0 -26 6l-122 49l-124 -51
q-13 -5 -26 -5q-21 0 -39.5 12.5t-25 28.5t-6.5 34q0 47 43 65z" />
    <glyph glyph-name="Idieresis" unicode="&#xcf;" horiz-adv-x="289" 
d="M29 108v504q0 47 34 81t82 34q47 0 81 -34t34 -82v-505q0 -48 -34.5 -81.5t-81.5 -33.5q-48 0 -81.5 34t-33.5 83zM-56 857q0 42 27.5 69.5t67.5 27.5q41 0 68 -28.5t27 -66.5q0 -40 -27.5 -67.5t-67.5 -27.5q-38 0 -67 27q-28 30 -28 66zM154 858q0 41 27.5 68.5
t67.5 27.5q41 0 68.5 -28t27.5 -68t-28 -67t-68 -27q-38 0 -67 27q-28 30 -28 67z" />
    <glyph glyph-name="Igrave" unicode="&#xcc;" horiz-adv-x="289" 
d="M29 108v504q0 47 34 81t82 34q47 0 81 -34t34 -82v-505q0 -48 -34.5 -81.5t-81.5 -33.5q-48 0 -81.5 34t-33.5 83zM80 973l182 -74q20 -8 32 -26t12 -39q0 -14 -6 -28q-17 -44 -66 -44q-16 0 -26 5l-182 71q-21 8 -33.5 26.5t-12.5 41.5q0 16 5 27q18 45 69 45
q15 0 26 -5z" />
    <glyph glyph-name="Oacute" unicode="&#xd3;" horiz-adv-x="806" 
d="M20 360q0 110 67 206q53 76 137 120t179 44q96 0 179 -43t137 -121q67 -95 67 -206t-67 -206q-53 -78 -136.5 -121t-179.5 -43t-179 43t-137 121q-67 96 -67 206zM287 900l182 72q15 5 26 5q21 0 39.5 -12.5t25.5 -29t7 -30.5q0 -21 -12.5 -39.5t-31.5 -26.5l-182 -74
q-3 -2 -11 -3.5t-16 -1.5q-23 0 -41.5 12t-26.5 34q-2 4 -3.5 11.5t-1.5 15.5q0 22 12 40.5t34 26.5zM432 194q55 11 90.5 56.5t35.5 108.5q0 15 -3 32q-10 62 -52.5 100t-99.5 38q-65 0 -109.5 -47.5t-44.5 -121.5t44.5 -121.5t108.5 -47.5q15 0 30 3z" />
    <glyph glyph-name="Ocircumflex" unicode="&#xd4;" horiz-adv-x="806" 
d="M20 360q0 110 67 206q53 76 137 120t179 44q96 0 179 -43t137 -121q67 -95 67 -206t-67 -206q-53 -78 -136.5 -121t-179.5 -43t-179 43t-137 121q-67 96 -67 206zM224 899l141 57q27 10 38 10q10 0 18.5 -3t18.5 -7l137 -56q27 -11 40 -38q6 -15 6 -30q0 -46 -43 -65
q-18 -7 -30 -7q-14 0 -26 6l-122 49l-124 -51q-13 -5 -26 -5q-21 0 -39.5 12.5t-25 28.5t-6.5 34q0 47 43 65zM432 194q55 11 90.5 56.5t35.5 108.5q0 15 -3 32q-10 62 -52.5 100t-99.5 38q-65 0 -109.5 -47.5t-44.5 -121.5t44.5 -121.5t108.5 -47.5q15 0 30 3z" />
    <glyph glyph-name="Ograve" unicode="&#xd2;" horiz-adv-x="806" 
d="M20 360q0 110 67 206q53 76 137 120t179 44q96 0 179 -43t137 -121q67 -95 67 -206t-67 -206q-53 -78 -136.5 -121t-179.5 -43t-179 43t-137 121q-67 96 -67 206zM339 973l182 -74q20 -8 32 -26t12 -39q0 -14 -6 -28q-17 -44 -66 -44q-16 0 -26 5l-182 71
q-21 8 -33.5 26.5t-12.5 41.5q0 16 5 27q18 45 69 45q15 0 26 -5zM432 194q55 11 90.5 56.5t35.5 108.5q0 15 -3 32q-10 62 -52.5 100t-99.5 38q-65 0 -109.5 -47.5t-44.5 -121.5t44.5 -121.5t108.5 -47.5q15 0 30 3z" />
    <glyph glyph-name="Uacute" unicode="&#xda;" horiz-adv-x="769" 
d="M29 323v288q0 48 33.5 83t82.5 35q47 0 81 -34t34 -82v-297q0 -51 26 -84t74 -41q8 -2 25 -2q16 0 24 2q48 8 74 40.5t26 84.5v297q0 48 34 82t81 34q49 0 82.5 -34.5t33.5 -83.5v-288q0 -134 -75 -219t-218 -107q-8 -2 -25.5 -3.5t-37.5 -1.5q-15 0 -31 1t-32 4
q-143 22 -217.5 106.5t-74.5 219.5zM268 900l182 72q15 5 26 5q21 0 39.5 -12.5t25.5 -29t7 -30.5q0 -21 -12.5 -39.5t-31.5 -26.5l-182 -74q-3 -2 -11 -3.5t-16 -1.5q-23 0 -41.5 12t-26.5 34q-2 4 -3.5 11.5t-1.5 15.5q0 22 12 40.5t34 26.5z" />
    <glyph glyph-name="Ucircumflex" unicode="&#xdb;" horiz-adv-x="769" 
d="M29 323v288q0 48 33.5 83t82.5 35q47 0 81 -34t34 -82v-297q0 -51 26 -84t74 -41q8 -2 25 -2q16 0 24 2q48 8 74 40.5t26 84.5v297q0 48 34 82t81 34q49 0 82.5 -34.5t33.5 -83.5v-288q0 -134 -75 -219t-218 -107q-8 -2 -25.5 -3.5t-37.5 -1.5q-15 0 -31 1t-32 4
q-143 22 -217.5 106.5t-74.5 219.5zM205 899l141 57q27 10 38 10q10 0 18.5 -3t18.5 -7l137 -56q27 -11 40 -38q6 -15 6 -30q0 -46 -43 -65q-18 -7 -30 -7q-14 0 -26 6l-122 49l-124 -51q-13 -5 -26 -5q-21 0 -39.5 12.5t-25 28.5t-6.5 34q0 47 43 65z" />
    <glyph glyph-name="Ugrave" unicode="&#xd9;" horiz-adv-x="769" 
d="M29 323v288q0 48 33.5 83t82.5 35q47 0 81 -34t34 -82v-297q0 -51 26 -84t74 -41q8 -2 25 -2q16 0 24 2q48 8 74 40.5t26 84.5v297q0 48 34 82t81 34q49 0 82.5 -34.5t33.5 -83.5v-288q0 -134 -75 -219t-218 -107q-8 -2 -25.5 -3.5t-37.5 -1.5q-15 0 -31 1t-32 4
q-143 22 -217.5 106.5t-74.5 219.5zM320 973l182 -74q20 -8 32 -26t12 -39q0 -14 -6 -28q-17 -44 -66 -44q-16 0 -26 5l-182 71q-21 8 -33.5 26.5t-12.5 41.5q0 16 5 27q18 45 69 45q15 0 26 -5z" />
    <glyph glyph-name="circumflex" unicode="&#x2c6;" horiz-adv-x="433" 
d="M37 720l141 57q27 10 38 10q10 0 18.5 -3t18.5 -7l137 -56q27 -11 40 -38q6 -15 6 -30q0 -46 -43 -65q-18 -7 -30 -7q-14 0 -26 6l-122 49l-124 -51q-13 -5 -26 -5q-21 0 -39.5 12.5t-25 28.5t-6.5 34q0 47 43 65z" />
    <glyph glyph-name="tilde" unicode="&#x2dc;" horiz-adv-x="401" 
d="M61 736h271q28 0 48 -19t20 -49q0 -29 -20 -49t-49 -20h-271q-25 0 -43.5 20.5t-18.5 49.5q0 28 18.5 47.5t44.5 19.5z" />
    <glyph glyph-name="macron" unicode="&#xaf;" horiz-adv-x="402" 
d="M62 736h271q28 0 48 -19t20 -49q0 -29 -20 -49t-49 -20h-271q-25 0 -43.5 20.5t-18.5 49.5q0 28 18.5 47.5t44.5 19.5z" />
    <glyph glyph-name="cedilla" unicode="&#xb8;" horiz-adv-x="205" 
d="M21 -47l46 78h138l-100 -179q-13 -22 -39 -22q-22 0 -38 17q-21 23 -21 56q0 28 14 50z" />
    <glyph glyph-name="Scaron" unicode="&#x160;" horiz-adv-x="618" 
d="M30 193q27 42 71 42h16q3 0 19 -4l44 -12l40 -10l29 -7l11 -3l17 -3q23 -3 36 -3q8 0 16 1.5t11 2.5q18 6 25.5 12.5t7.5 16.5q0 9 -10 16l-8 3l-19 6l-13 4l-53 13l-10 2l-66 19q-28 8 -50.5 17t-41.5 21q-41 25 -63 66.5t-22 90.5q0 40 14.5 77.5t45.5 71.5t82.5 58.5
t115.5 32.5q27 3 53 3q55 0 109 -16t81 -36.5t37 -52.5q3 -9 4 -21.5t1 -13.5q0 -31 -16 -53q-29 -42 -78 -42q-28 0 -62 10l-8 3l-29 9l-12 3l-28 7l-14 3l-10 2l-13 1q-27 0 -37 -8t-10 -17q0 -6 6 -11l16 -7l19 -5l7 -2l20 -5l33 -8l66 -18q49 -14 87 -33
q53 -27 82 -74.5t29 -102.5q0 -39 -13 -74.5t-43 -70.5q-46 -54 -118 -77.5t-179 -23.5q-60 0 -103 11.5t-73 29.5q-38 22 -52 45.5t-14 58.5q0 29 17 55zM184 949l123 -50l122 49q15 5 28 5q14 0 31.5 -7.5t28.5 -25.5t11 -40q0 -14 -6 -28q-13 -28 -40 -39l-137 -56
q-23 -10 -37 -10q-13 0 -38 11l-141 57q-20 8 -31.5 25.5t-11.5 40.5q0 17 6.5 33t24.5 28t41 12q15 0 26 -5z" />
    <glyph glyph-name="scaron" unicode="&#x161;" horiz-adv-x="509" 
d="M149 187l20 -6l14 -5q20 -8 33.5 -11.5t26.5 -5.5h6h12q13 0 18 9q5 12 -11 22l-7 4l-9 3l-20 5l-26 8l-19 5q-68 18 -100.5 41t-48.5 61q-11 25 -11 56q0 71 65 122q69 54 179 54q58 0 98 -11t64 -24.5t36.5 -30t12.5 -40.5t-15 -44t-41 -27q-12 -3 -25 -3
q-15 0 -22 1.5t-27 6.5l-30 7l-15 4l-16 3l-11 2q-16 2 -19 2q-8 0 -14 -3l-2 -2l-3 -3q-9 -9 7 -20l7 -4l9 -3l15 -5l35 -11l25 -7l22 -8q19 -6 33 -13.5t33 -19.5q33 -24 50.5 -56.5t17.5 -69.5q0 -36 -16.5 -69t-51.5 -60q-30 -24 -72.5 -37.5t-96.5 -13.5q-11 0 -23.5 1
t-19.5 1q-45 0 -79.5 10.5t-63.5 27.5q-64 38 -64 85q0 14 4 25q8 25 31.5 40.5t55.5 15.5q22 0 49 -9zM144 789l123 -50l122 49q15 5 28 5q14 0 31.5 -7.5t28.5 -25.5t11 -40q0 -14 -6 -28q-13 -28 -40 -39l-137 -56q-23 -10 -37 -10q-13 0 -38 11l-141 57
q-20 8 -31.5 25.5t-11.5 40.5q0 17 6.5 33t24.5 28t41 12q15 0 26 -5z" />
    <glyph glyph-name="Zcaron" unicode="&#x17d;" horiz-adv-x="698" 
d="M317 521h-191q-42 0 -71.5 30.5t-29.5 69.5q0 42 30.5 70.5t70.5 28.5h415l24 -3q38 -9 60.5 -37.5t22.5 -62.5q0 -20 -9 -40l-18 -27l-280 -351h245q41 0 70 -29t29 -71q0 -41 -29 -70t-71 -29h-463q-48 0 -78.5 28.5t-30.5 70.5q0 11 4.5 29t16.5 35zM234 949l123 -50
l122 49q15 5 28 5q14 0 31.5 -7.5t28.5 -25.5t11 -40q0 -14 -6 -28q-13 -28 -40 -39l-137 -56q-23 -10 -37 -10q-13 0 -38 11l-141 57q-20 8 -31.5 25.5t-11.5 40.5q0 17 6.5 33t24.5 28t41 12q15 0 26 -5z" />
    <glyph glyph-name="zcaron" unicode="&#x17e;" horiz-adv-x="574" 
d="M454 541l27 -2q27 -4 44.5 -24.5t17.5 -48.5q0 -18 -7 -33l-12 -19l-184 -219h130q40 0 69 -28t29 -69q0 -40 -28 -69t-68 -29h-363l-28 1q-31 3 -50.5 23.5t-19.5 50.5q0 19 9 39l11 16l183 216h-104q-40 0 -68.5 28.5t-28.5 68.5t28 69t68 29h345zM174 789l123 -50
l122 49q15 5 28 5q14 0 31.5 -7.5t28.5 -25.5t11 -40q0 -14 -6 -28q-13 -28 -40 -39l-137 -56q-23 -10 -37 -10q-13 0 -38 11l-141 57q-20 8 -31.5 25.5t-11.5 40.5q0 17 6.5 33t24.5 28t41 12q15 0 26 -5z" />
    <glyph glyph-name="Eth" unicode="&#xd0;" horiz-adv-x="738" 
d="M260 437q19 -12 29.5 -31t10.5 -47q0 -55 -40 -80v-80h55q78 0 126 44t48 113q0 17 -5 40q-11 55 -59 89.5t-119 34.5h-46v-83zM29 278q-19 10 -31.5 31.5t-12.5 49.5t12 49t32 32v164q0 49 33.5 82.5t82.5 33.5h158q168 0 270 -70t135 -204q10 -43 10 -90
q0 -154 -107 -255t-273 -101h-194q-47 0 -81 34t-34 83v161z" />
    <glyph glyph-name="eth" unicode="&#xf0;" horiz-adv-x="609" 
d="M367 244q0 15 -9.5 29t-23.5 19.5t-28 5.5q-23 0 -41 -15t-18 -37q0 -23 20 -37.5t40 -14.5q8 0 22 4q38 16 38 46zM216 510l-57 -21q-11 -4 -24 -4q-25 0 -46.5 16t-32.5 46q-6 18 -6 36q0 56 48 74l5 2q-11 22 -11 41q0 29 26 63q17 23 44.5 34.5t46.5 11.5
q23 0 48 -15.5t65 -54.5l50 18q9 4 22 4q25 0 47.5 -16.5t32.5 -45.5q7 -18 7 -37q0 -24 -11 -42.5t-31 -28.5q28 -42 58 -92.5t46 -83.5q25 -51 37.5 -97.5t12.5 -89.5q0 -98 -64.5 -159t-180.5 -75q-27 -3 -52 -3q-93 0 -160.5 42.5t-98.5 119.5q-21 51 -21 98
q0 74 46 125.5t123 65.5l47 7l22 2z" />
    <glyph glyph-name="Yacute" unicode="&#xdd;" horiz-adv-x="641" 
d="M320 533l114 138q47 57 102 57q34 0 67 -25q19 -14 31 -36q16 -29 16 -60q0 -36 -23 -62l-191 -207v-230q0 -47 -33 -82.5t-82 -35.5q-48 0 -82 34.5t-34 83.5v230l-191 207q-23 25 -23 63q0 17 3 29.5t14 32t30 33.5q34 25 68 25q54 0 101 -57zM239 900l182 72
q15 5 26 5q21 0 39.5 -12.5t25.5 -29t7 -30.5q0 -21 -12.5 -39.5t-31.5 -26.5l-182 -74q-3 -2 -11 -3.5t-16 -1.5q-23 0 -41.5 12t-26.5 34q-2 4 -3.5 11.5t-1.5 15.5q0 22 12 40.5t34 26.5z" />
    <glyph glyph-name="yacute" unicode="&#xfd;" horiz-adv-x="518" 
d="M265 305l51 152q3 9 9 22t11 23q13 22 35 34t50 12q24 0 45.5 -9t39.5 -29q27 -29 27 -70q0 -27 -11 -50l-246 -560q-35 -80 -103 -80q-17 0 -35 6q-34 10 -54.5 36.5t-20.5 59.5q0 22 11 46l77 156l-153 344q-8 19 -8 39q0 31 17.5 58.5t45 40.5t50.5 13q74 0 106 -89z
M200 721l182 72q15 5 26 5q21 0 39.5 -12.5t25.5 -29t7 -30.5q0 -21 -12.5 -39.5t-31.5 -26.5l-182 -74q-3 -2 -11 -3.5t-16 -1.5q-23 0 -41.5 12t-26.5 34q-2 4 -3.5 11.5t-1.5 15.5q0 22 12 40.5t34 26.5z" />
  </font>
</defs>
</svg>
